<!DOCTYPE svg PUBLIC "-//W3C//DTD SVG 20010904//EN" "http://www.w3.org/TR/2001/REC-SVG-20010904/DTD/svg10.dtd">
<svg version="1.0" xmlns="http://www.w3.org/2000/svg" width="396px" height="156px" viewBox="0 0 3960 1560" preserveAspectRatio="xMidYMid meet">
<g id="layer101" fill="#010101" stroke="none">
<path d="M863 1508 l-20 -53 -417 -3 -416 -2 0 -65 0 -65 390 0 c233 0 390 -4 390 -9 0 -5 -11 -18 -25 -29 -20 -16 -25 -29 -26 -63 0 -24 -3 -38 -6 -31 -2 6 -15 12 -28 12 -16 0 -25 7 -29 23 -11 46 -40 67 -91 67 -41 0 -46 -2 -41 -17 37 -100 53 -133 63 -133 7 0 13 -7 13 -15 0 -11 12 -15 45 -15 25 0 45 -3 45 -7 -1 -5 -40 -111 -88 -238 l-87 -230 1254 -307 c690 -170 1260 -308 1266 -308 12 0 372 926 364 934 -2 2 -145 37 -317 79 -172 41 -316 78 -319 81 -4 3 -3 9 0 13 4 4 13 1 19 -5 18 -18 73 -14 91 6 16 17 15 23 -4 80 -12 37 -27 62 -35 62 -8 0 -14 5 -14 10 0 6 -21 10 -46 10 -40 0 -45 -2 -39 -17 4 -10 9 -29 12 -43 4 -23 3 -23 -13 5 -9 17 -24 35 -33 42 -15 12 -101 18 -101 8 0 -3 11 -33 25 -67 30 -74 30 -78 6 -78 -15 0 -18 5 -14 21 4 14 0 26 -10 34 -9 6 -17 18 -19 25 -5 21 -48 60 -75 66 -13 4 -51 4 -84 2 -63 -5 -79 -15 -79 -55 0 -34 -21 -28 -65 17 -35 36 -44 40 -87 40 -36 0 -48 -4 -48 -15 0 -8 -6 -15 -12 -15 -20 1 -199 48 -205 54 -4 3 440 6 985 6 l992 0 0 65 0 65 -1284 0 -1285 0 -226 55 c-125 30 -233 55 -240 55 -7 0 -21 -24 -32 -52z"/>
<path d="M76 1218 c31 -40 71 -92 88 -115 33 -46 63 -57 131 -51 l40 3 12 83 c6 46 13 86 16 88 3 3 13 -15 23 -40 11 -25 22 -46 27 -46 4 0 7 -7 7 -15 0 -19 85 -21 94 -2 5 10 7 10 12 0 6 -14 54 -18 54 -4 0 22 -23 70 -31 65 -5 -3 -9 0 -9 5 0 6 -11 11 -24 11 -17 0 -26 7 -30 23 -11 47 -40 67 -94 67 -30 0 -53 -5 -56 -12 -5 -10 -7 -10 -12 0 -7 14 -104 17 -104 2 0 -13 -77 -13 -85 0 -3 6 -31 10 -61 10 l-55 0 57 -72z"/>
<path d="M2907 1283 c-21 -20 3 -123 29 -123 6 0 14 -7 18 -15 3 -8 12 -15 21 -15 8 0 15 -4 15 -10 0 -5 20 -10 44 -10 39 0 45 -3 51 -27 3 -15 12 -31 18 -35 17 -11 117 -10 117 1 0 27 -85 221 -97 221 -7 0 -13 5 -13 10 0 6 -20 10 -45 10 -28 0 -45 -4 -45 -12 0 -9 -3 -9 -12 0 -13 13 -90 17 -101 5z"/>
<path d="M3154 1273 c37 -100 53 -133 63 -133 7 0 13 -7 13 -15 0 -19 86 -21 93 -2 4 10 7 10 18 0 7 -7 24 -13 37 -13 21 0 23 3 17 33 -7 31 -7 31 11 16 11 -9 29 -20 42 -23 12 -4 22 -12 22 -17 0 -5 25 -9 55 -9 45 0 58 4 80 25 30 31 31 39 5 65 -12 12 -18 25 -15 30 4 6 2 10 -4 10 -6 0 -20 10 -31 22 -17 19 -34 23 -96 26 -86 5 -104 -5 -104 -54 0 -32 -2 -34 -34 -34 -31 0 -34 3 -40 35 -4 21 -13 35 -21 35 -8 0 -15 5 -15 10 0 6 -23 10 -51 10 -45 0 -50 -2 -45 -17z"/>
<path d="M3610 1283 c0 -21 74 -229 84 -235 16 -11 116 -10 116 1 0 27 -85 221 -97 221 -7 0 -13 5 -13 10 0 6 -20 10 -45 10 -25 0 -45 -3 -45 -7z"/>
<path d="M3750 1283 c0 -21 74 -229 84 -235 14 -10 116 -10 116 -1 0 5 -16 56 -36 115 -29 87 -39 108 -55 108 -10 0 -19 5 -19 10 0 6 -20 10 -45 10 -25 0 -45 -3 -45 -7z"/>
</g>
<g id="layer102" fill="#2d0201" stroke="none">
<path d="M863 1508 l-20 -53 -417 -3 -416 -2 0 -65 0 -65 390 0 c233 0 390 -4 390 -9 0 -5 -11 -18 -25 -29 -31 -25 -33 -67 -5 -121 10 -21 16 -41 13 -45 -11 -11 -53 -6 -53 7 0 6 -14 -26 -30 -73 -16 -47 -58 -159 -92 -250 l-63 -165 1254 -307 c690 -170 1260 -308 1266 -308 12 0 372 926 364 934 -10 9 -610 149 -663 155 -34 3 -61 11 -64 19 -2 8 6 12 25 11 15 -1 33 0 38 1 6 2 17 1 25 -3 30 -11 70 -14 70 -5 0 6 6 8 13 5 11 -4 12 6 6 47 -4 28 -13 63 -20 79 -11 23 -18 27 -57 27 -38 0 -43 -2 -37 -17 5 -10 10 -33 13 -50 3 -26 1 -33 -12 -33 -9 0 -16 8 -16 20 0 12 -7 34 -15 50 -14 26 -21 30 -60 30 -25 0 -45 -2 -45 -5 0 -3 11 -33 25 -67 31 -75 31 -78 3 -78 -36 0 -68 -11 -62 -21 8 -14 -78 -10 -103 4 -20 11 -16 13 36 12 68 0 82 9 84 56 l2 34 -67 3 c-38 2 -68 6 -68 11 0 4 27 5 60 3 51 -4 59 -2 54 11 -10 26 -60 40 -130 35 -68 -4 -84 -14 -84 -55 0 -36 -23 -32 -64 14 -35 40 -42 43 -87 43 -37 0 -49 -4 -49 -15 0 -19 -9 -19 -100 5 l-75 19 -25 -24 c-29 -28 -45 -31 -53 -11 -7 18 12 36 38 36 16 0 17 2 5 10 -10 6 333 10 978 10 l992 0 0 65 0 65 -1284 0 -1285 0 -226 55 c-125 30 -233 55 -240 55 -7 0 -21 -24 -32 -52z m906 -259 c-15 -9 -32 -2 -24 11 3 5 13 6 21 3 12 -4 13 -8 3 -14z m-268 -36 c17 -45 11 -71 -21 -88 -32 -17 -120 -21 -120 -5 0 6 -7 10 -17 10 -9 0 -14 2 -12 5 3 2 28 1 57 -4 28 -4 49 -5 47 -1 -3 4 9 10 25 14 27 5 30 9 30 42 0 23 -6 42 -17 50 -17 13 -17 14 0 8 10 -4 23 -18 28 -31z m-501 -28 c0 -47 -31 -75 -86 -75 -23 0 -53 6 -68 13 -24 13 -21 14 40 13 74 -1 86 8 82 66 -3 32 -1 35 14 27 12 -6 18 -21 18 -44z m-142 22 c2 -12 -1 -15 -12 -11 -19 7 -22 38 -3 32 6 -3 13 -12 15 -21z m1117 13 c3 -5 0 -18 -7 -28 -11 -16 -16 -16 -38 -5 -17 8 -19 13 -9 13 9 0 19 7 23 15 6 17 22 20 31 5z m-610 -10 c3 -5 1 -10 -4 -10 -6 0 -11 5 -11 10 0 6 2 10 4 10 3 0 8 -4 11 -10z m530 0 c-3 -5 -13 -10 -21 -10 -8 0 -14 5 -14 10 0 6 9 10 21 10 11 0 17 -4 14 -10z m-757 -61 c-3 -33 -5 -34 -50 -37 -40 -3 -47 0 -42 12 4 10 19 16 40 16 34 0 38 6 34 45 -1 15 1 17 10 9 6 -6 10 -27 8 -45z m569 44 c-4 -3 -10 -3 -14 0 -3 4 0 7 7 7 7 0 10 -3 7 -7z m573 -93 c0 -43 -11 -51 -68 -49 l-37 2 35 6 35 6 -3 58 c-1 32 0 63 4 69 10 16 34 -49 34 -92z m110 55 c13 -14 21 -25 18 -25 -2 0 -15 11 -28 25 -13 14 -21 25 -18 25 2 0 15 -11 28 -25z m-560 -5 c0 -5 -4 -10 -10 -10 -5 0 -10 5 -10 10 0 6 5 10 10 10 6 0 10 -4 10 -10z m115 -10 c4 -12 -1 -30 -12 -44 -15 -21 -26 -25 -70 -26 -29 0 -53 4 -53 8 0 5 6 9 13 9 47 3 82 12 85 22 2 6 7 9 11 6 5 -2 6 7 3 20 -5 30 14 34 23 5z m-660 -15 c0 -18 -80 -18 -95 0 -12 15 -8 16 41 13 30 -2 54 -7 54 -13z m1140 -15 c3 -5 4 -10 1 -10 -3 0 -8 5 -11 10 -3 6 -4 10 -1 10 3 0 8 -4 11 -10z m-628 -17 c-4 -3 -10 -3 -14 0 -3 4 0 7 7 7 7 0 10 -3 7 -7z m673 -34 c0 -5 -15 -8 -32 -8 -32 2 -32 2 -5 6 25 4 27 6 15 21 -12 15 -11 16 5 3 9 -7 17 -17 17 -22z m-73 -6 c-4 -3 -10 -3 -14 0 -3 4 0 7 7 7 7 0 10 -3 7 -7z m-1238 -206 c23 -54 41 -101 41 -106 0 -5 11 -33 24 -62 39 -89 40 -99 17 -99 -15 0 -21 6 -21 23 0 13 -4 27 -9 32 -4 6 -36 81 -70 167 -46 114 -61 163 -55 180 8 26 1 39 73 -135z m1805 100 c26 -35 37 -117 16 -117 -5 0 -10 -5 -10 -11 0 -20 -55 -66 -105 -88 l-47 -21 4 -50 c1 -27 2 -50 1 -50 -2 0 -12 8 -23 17 -20 18 -24 41 -14 79 6 23 49 48 65 39 5 -4 9 1 9 10 0 8 11 20 25 25 53 20 70 47 69 108 -1 45 -6 60 -24 74 -17 13 -18 18 -7 18 9 0 27 -15 41 -33z m-1634 -178 c0 -119 -4 -189 -10 -189 -6 0 -10 72 -10 196 0 127 3 193 10 189 6 -4 10 -80 10 -196z m97 189 c9 -15 33 -79 33 -90 0 -5 -4 -8 -9 -8 -10 0 -27 39 -23 53 1 4 -2 7 -6 7 -5 0 -14 11 -20 25 -9 20 -9 25 3 25 7 0 17 -6 22 -12z m295 6 c3 -3 -10 -42 -29 -87 -19 -45 -40 -93 -45 -107 -6 -14 -12 -29 -14 -35 -7 -31 -42 -94 -48 -88 -4 4 -4 0 -1 -9 4 -9 0 -29 -8 -45 l-15 -28 -8 29 c-4 18 -2 37 6 50 21 34 70 157 70 177 0 11 3 19 8 19 4 0 18 29 30 65 21 58 38 76 54 59z m138 -164 c0 -163 -1 -170 -20 -170 -19 0 -20 7 -20 170 0 163 1 170 20 170 19 0 20 -7 20 -170z m830 160 c0 -6 -32 -10 -75 -10 l-75 0 0 -85 c0 -78 -2 -85 -20 -85 -19 0 -20 7 -20 90 l0 89 88 4 c48 1 90 4 95 5 4 1 7 -2 7 -8z m135 -20 c-21 -16 -44 -30 -51 -30 -22 0 5 48 30 53 55 11 59 7 21 -23z m-649 13 c-22 -6 -33 -14 -84 -62 -34 -33 -36 -37 -36 -105 -1 -73 1 -77 51 -132 31 -34 10 -30 -31 6 -19 17 -38 44 -41 60 -4 17 -11 30 -16 30 -18 0 -8 70 16 117 37 68 69 93 119 92 23 -1 32 -4 22 -6z m81 0 c-4 -3 -10 -3 -14 0 -3 4 0 7 7 7 7 0 10 -3 7 -7z m127 -37 c14 -24 27 -63 28 -87 l3 -44 -90 -1 c-79 0 -81 0 -16 3 l74 4 -6 51 c-4 27 -15 65 -26 84 -15 26 -17 34 -7 34 8 0 26 -20 40 -44z m-1311 -39 c7 -18 -27 -99 -38 -90 -4 4 -5 2 -1 -5 9 -15 -50 -182 -68 -194 -20 -14 -27 -8 -16 13 7 11 18 44 27 72 8 28 22 57 32 65 9 7 11 11 4 8 -7 -4 -1 24 14 69 24 73 36 89 46 62z m469 -64 c-29 -3 -42 -8 -39 -16 38 -94 44 -115 38 -126 -6 -8 -12 -3 -21 18 -6 17 -11 33 -10 37 1 4 -3 10 -8 13 -9 6 -42 65 -42 76 0 3 28 4 63 3 50 -1 54 -2 19 -5z m1158 -58 c0 -12 -16 -15 -80 -15 l-80 0 0 -55 c0 -48 -2 -55 -20 -55 -18 0 -20 7 -20 60 l0 60 91 0 c57 0 88 4 84 10 -3 6 1 10 9 10 9 0 16 -7 16 -15z m-311 -89 c10 -11 8 -16 -9 -21 -12 -4 -19 -9 -16 -12 3 -3 0 -11 -7 -17 -24 -23 -69 -36 -120 -35 l-52 2 45 7 c25 4 49 5 54 2 5 -3 6 0 2 6 -4 7 -1 12 6 12 7 0 27 16 43 35 34 39 38 40 54 21z m568 -64 c-11 -12 -32 -19 -60 -20 -23 0 -35 2 -27 5 34 11 66 29 74 41 6 10 11 11 19 3 7 -7 6 -16 -6 -29z m-987 -7 c0 -13 -20 -15 -132 -13 l-133 2 118 3 c66 2 117 8 117 13 0 6 7 10 15 10 8 0 15 -7 15 -15z m730 0 c0 -12 -17 -15 -102 -13 l-103 2 88 3 c48 2 87 8 87 13 0 6 7 10 15 10 8 0 15 -7 15 -15z m-533 -11 c-3 -3 -12 -4 -19 -1 -8 3 -5 6 6 6 11 1 17 -2 13 -5z"/>
<path d="M76 1218 c31 -40 71 -92 88 -115 31 -42 32 -42 94 -43 l62 0 0 115 0 115 -50 0 c-27 0 -50 -4 -50 -10 0 -13 -77 -13 -85 0 -3 6 -31 10 -61 10 l-55 0 57 -72z m143 -30 c-1 -18 -3 -25 -6 -15 -2 9 -9 15 -14 12 -5 -4 -9 3 -9 14 0 12 7 21 15 21 10 0 15 -10 14 -32z"/>
<path d="M342 1282 c2 -5 17 -39 33 -76 l30 -66 50 1 c28 1 60 -1 73 -5 24 -8 27 0 16 42 -5 17 -14 22 -38 22 -24 0 -34 6 -43 27 -7 15 -13 35 -13 45 0 15 -9 18 -56 18 -31 0 -54 -4 -52 -8z"/>
<path d="M544 1273 c4 -10 17 -44 29 -75 l22 -58 50 -1 c27 0 60 -2 73 -5 16 -3 22 1 22 15 0 36 -12 51 -40 51 -22 0 -31 7 -44 34 -9 19 -16 39 -16 45 0 7 -21 11 -51 11 -45 0 -50 -2 -45 -17z"/>
<path d="M2907 1283 c-22 -21 4 -123 30 -123 7 0 16 -6 19 -14 3 -9 19 -13 45 -12 21 0 39 -3 39 -9 0 -5 5 -3 10 5 9 13 14 7 11 -12 0 -5 3 -8 8 -8 5 0 12 -13 16 -30 6 -28 9 -30 57 -30 l50 0 -7 31 c-4 17 -13 42 -21 57 -7 15 -11 35 -8 46 3 10 2 16 -3 13 -5 -3 -17 17 -26 44 -18 49 -18 49 -62 49 -28 0 -45 -4 -45 -12 0 -9 -3 -9 -12 0 -13 13 -90 17 -101 5z m123 -53 c12 -8 11 -10 -7 -10 -17 0 -21 -4 -16 -17 5 -14 3 -16 -7 -6 -13 12 -8 43 7 43 4 0 15 -5 23 -10z"/>
<path d="M3154 1273 c4 -10 17 -44 29 -76 l22 -58 50 2 c28 1 57 0 65 -3 53 -20 53 -20 47 16 l-6 35 41 -27 c34 -22 53 -27 103 -27 68 0 88 12 93 58 3 21 -2 29 -20 36 -13 6 -17 10 -10 10 8 1 5 9 -8 23 -17 19 -34 23 -96 26 -86 5 -104 -5 -104 -54 0 -33 -1 -34 -40 -34 -22 0 -40 5 -40 11 0 6 -7 26 -16 45 -15 32 -19 34 -66 34 -44 0 -49 -2 -44 -17z m316 -33 c0 -5 -4 -10 -10 -10 -5 0 -10 5 -10 10 0 6 5 10 10 10 6 0 10 -4 10 -10z m37 -7 c-4 -3 -10 -3 -14 0 -3 4 0 7 7 7 7 0 10 -3 7 -7z m40 1 c-3 -3 -12 -4 -19 -1 -8 3 -5 6 6 6 11 1 17 -2 13 -5z m-40 -50 c-3 -3 -12 -4 -19 -1 -8 3 -5 6 6 6 11 1 17 -2 13 -5z"/>
<path d="M3610 1283 c0 -4 17 -58 37 -120 l37 -113 48 0 c26 0 48 4 48 10 0 10 -28 90 -62 178 -20 52 -21 52 -64 52 -24 0 -44 -3 -44 -7z"/>
<path d="M3750 1283 c0 -4 17 -58 37 -119 l37 -112 44 -4 c30 -2 46 1 49 10 3 7 -14 62 -38 122 l-43 110 -43 0 c-24 0 -43 -3 -43 -7z"/>
</g>
<g id="layer103" fill="#010629" stroke="none">
<path d="M863 1508 l-20 -53 -417 -3 -416 -2 0 -65 0 -65 390 0 c233 0 390 -4 390 -9 0 -5 -11 -18 -25 -29 -31 -25 -33 -67 -5 -121 10 -21 16 -41 13 -45 -11 -11 -53 -6 -53 7 0 6 -14 -26 -30 -73 -16 -47 -58 -159 -92 -250 l-63 -165 1254 -307 c690 -170 1260 -308 1266 -308 12 0 372 926 364 934 -11 10 -644 156 -678 156 -35 0 -61 13 -49 25 4 5 61 5 133 1 l51 -3 -7 46 c-3 25 -12 61 -19 79 -11 30 -15 32 -57 32 -39 0 -44 -2 -38 -17 5 -10 10 -33 13 -50 3 -26 1 -33 -12 -33 -9 0 -16 8 -16 20 0 12 -7 34 -15 50 -14 26 -21 30 -60 30 -25 0 -45 -2 -45 -5 0 -3 11 -33 25 -67 14 -34 25 -65 25 -70 0 -4 -13 -8 -29 -8 -16 0 -36 -7 -45 -15 -18 -18 -82 -19 -113 -2 -20 11 -15 12 37 12 68 0 81 9 83 56 l2 34 -72 3 c-40 2 -73 7 -73 11 0 5 29 6 65 3 56 -4 65 -3 59 11 -10 26 -60 40 -130 35 -68 -4 -84 -14 -84 -54 0 -40 -27 -35 -65 12 -34 41 -39 44 -86 44 -37 0 -49 -4 -49 -15 0 -19 -9 -19 -100 5 l-75 19 -25 -24 c-29 -28 -45 -31 -53 -11 -7 18 12 36 38 36 16 0 17 2 5 10 -10 6 333 10 978 10 l992 0 0 65 0 65 -1284 0 -1285 0 -226 55 c-125 30 -233 55 -240 55 -7 0 -21 -24 -32 -52z m906 -259 c-15 -9 -32 -2 -24 11 3 5 13 6 21 3 12 -4 13 -8 3 -14z m-268 -36 c17 -45 11 -71 -21 -88 -32 -17 -120 -21 -120 -5 0 6 -7 10 -17 10 -9 0 -14 2 -12 5 3 2 28 1 57 -4 28 -4 49 -4 46 1 -3 4 4 8 15 8 12 0 21 5 21 11 0 5 5 7 10 4 18 -11 11 67 -7 81 -17 13 -17 14 0 8 10 -4 23 -18 28 -31z m-629 9 c-7 -2 -12 -10 -12 -18 0 -8 -6 -11 -15 -8 -8 4 -15 12 -15 19 0 16 19 24 39 17 10 -4 11 -7 3 -10z m128 -40 c0 -49 -26 -72 -84 -72 -36 0 -106 23 -106 35 0 2 16 -1 36 -7 20 -5 53 -6 75 -3 42 7 56 31 47 80 -4 21 -3 23 13 14 13 -7 19 -21 19 -47z m370 22 c0 -8 -4 -12 -10 -9 -5 3 -10 13 -10 21 0 8 5 12 10 9 6 -3 10 -13 10 -21z m607 18 c8 -5 7 -13 -5 -28 -15 -19 -20 -19 -42 -8 -17 9 -20 14 -9 14 9 0 19 7 23 15 6 17 15 19 33 7z m-82 -12 c-3 -5 -13 -10 -21 -10 -8 0 -14 5 -14 10 0 6 9 10 21 10 11 0 17 -4 14 -10z m-755 -61 l0 -39 -50 0 c-40 0 -48 3 -44 15 4 9 19 15 40 15 34 0 38 6 34 44 -1 11 3 15 9 12 6 -4 11 -25 11 -47z m567 44 c-4 -3 -10 -3 -14 0 -3 4 0 7 7 7 7 0 10 -3 7 -7z m571 -91 l-3 -47 -50 -2 c-42 -1 -45 0 -15 5 l35 7 -3 58 c-1 32 0 63 4 69 13 21 35 -42 32 -90z m112 53 c13 -14 21 -25 18 -25 -2 0 -15 11 -28 25 -13 14 -21 25 -18 25 2 0 15 -11 28 -25z m-560 -5 c0 -5 -4 -10 -10 -10 -5 0 -10 5 -10 10 0 6 5 10 10 10 6 0 10 -4 10 -10z m116 -16 c14 -56 -83 -87 -152 -48 -27 15 -27 15 -4 9 44 -11 112 -4 118 14 2 6 7 9 11 6 5 -2 6 7 3 20 -6 33 16 32 24 -1z m-658 -11 c6 -20 -94 -17 -102 3 -5 13 3 15 46 12 30 -2 53 -8 56 -15z m1182 -65 c0 -4 -15 -7 -32 -7 -32 2 -32 2 -4 6 l28 5 -28 31 -29 32 33 -29 c17 -17 32 -33 32 -38z m-73 -5 c-4 -3 -10 -3 -14 0 -3 4 0 7 7 7 7 0 10 -3 7 -7z m-1217 -259 c44 -109 80 -202 80 -206 0 -4 -9 -8 -20 -8 -14 0 -20 7 -20 23 0 13 -4 27 -9 32 -4 6 -36 81 -70 167 -43 107 -61 164 -56 178 4 12 9 20 11 17 3 -2 40 -94 84 -203z m1162 169 c25 -7 65 -81 73 -136 l7 -47 -93 2 c-92 2 -92 2 -20 5 l74 4 -6 49 c-7 62 -30 105 -65 125 -15 9 -18 13 -7 10 11 -4 28 -9 37 -12z m621 -13 c21 -23 27 -40 27 -76 0 -40 -5 -51 -38 -85 -21 -21 -57 -45 -80 -54 -46 -19 -59 -44 -48 -95 6 -35 4 -36 -24 -13 -24 21 -27 75 -4 97 8 9 26 19 39 22 13 3 26 12 29 20 3 8 12 14 19 14 8 0 27 11 43 25 26 23 29 31 28 82 -1 46 -6 61 -24 75 -15 12 -17 18 -8 18 8 0 27 -13 41 -30z m-1633 -175 c0 -123 -4 -195 -10 -195 -6 0 -10 72 -10 195 0 123 4 195 10 195 6 0 10 -72 10 -195z m100 190 c0 -2 9 -27 20 -55 28 -71 2 -67 -33 5 -26 53 -26 55 -7 55 11 0 20 -2 20 -5z m300 1 c0 -4 -43 -107 -76 -181 -9 -22 -18 -42 -18 -45 -9 -35 -41 -98 -47 -94 -5 3 -6 -2 -3 -10 3 -8 -1 -27 -9 -43 l-15 -28 -7 27 c-5 19 2 44 23 90 16 35 36 81 43 103 7 22 22 63 35 90 12 28 25 60 28 73 5 13 15 22 27 22 10 0 19 -2 19 -4z m130 -166 c0 -163 -1 -170 -20 -170 -19 0 -20 7 -20 170 0 163 1 170 20 170 19 0 20 -7 20 -170z m835 160 c-3 -5 -40 -10 -81 -10 l-74 0 0 -85 c0 -78 -2 -85 -20 -85 -19 0 -20 7 -20 90 l0 89 88 4 c48 1 93 4 100 5 7 1 10 -2 7 -8z m165 6 c0 -7 -76 -56 -88 -56 -20 0 9 49 32 53 30 6 56 8 56 3z m-684 -13 c-22 -6 -33 -14 -84 -62 -34 -33 -36 -37 -36 -105 -1 -73 2 -80 57 -138 28 -30 1 -21 -37 12 -19 17 -38 44 -41 60 -4 17 -11 30 -16 30 -16 0 -9 65 12 111 31 66 73 99 123 98 22 -1 32 -4 22 -6z m81 0 c-4 -3 -10 -3 -14 0 -3 4 0 7 7 7 7 0 10 -3 7 -7z m-1184 -76 c6 -17 -27 -100 -36 -90 -5 4 -5 1 -2 -8 8 -22 -58 -193 -76 -197 -13 -2 -11 12 14 82 17 51 34 83 40 79 6 -3 7 -1 3 6 -8 13 31 141 44 141 4 0 10 -6 13 -13z m469 -64 c-29 -3 -42 -8 -39 -16 38 -93 44 -115 38 -125 -4 -7 -22 20 -44 63 -20 42 -37 78 -37 80 0 3 28 4 63 3 50 -1 54 -2 19 -5z m1158 -58 c0 -12 -16 -15 -80 -15 l-80 0 0 -55 c0 -48 -2 -55 -20 -55 -18 0 -20 7 -20 60 l0 60 85 0 c50 0 85 4 85 10 0 6 7 10 15 10 8 0 15 -7 15 -15z m-313 -86 c8 -8 4 -18 -13 -36 -37 -40 -71 -53 -133 -52 l-56 2 45 7 c25 4 49 5 54 2 5 -3 6 0 2 6 -4 7 -1 12 6 12 7 0 27 16 43 35 34 38 36 40 52 24z m568 -69 c-13 -14 -30 -20 -59 -19 -23 0 -34 3 -26 6 34 11 65 29 74 41 6 10 11 11 19 3 7 -7 5 -16 -8 -31z m-985 -5 c0 -13 -20 -15 -132 -13 l-133 2 118 3 c66 2 117 8 117 13 0 6 7 10 15 10 8 0 15 -7 15 -15z m730 0 c0 -12 -17 -15 -102 -13 l-103 2 88 3 c48 2 87 8 87 13 0 6 7 10 15 10 8 0 15 -7 15 -15z m-533 -11 c-3 -3 -12 -4 -19 -1 -8 3 -5 6 6 6 11 1 17 -2 13 -5z"/>
<path d="M1560 620 c0 -7 3 -10 7 -7 3 4 3 10 0 14 -4 3 -7 0 -7 -7z"/>
<path d="M1924 1278 c-4 -7 -3 -8 4 -4 7 4 12 9 12 12 0 8 -9 4 -16 -8z"/>
<path d="M2907 1283 c-22 -21 4 -123 30 -123 7 0 16 -6 19 -14 5 -14 71 -15 93 -2 10 6 15 -6 12 -26 0 -5 3 -8 8 -8 5 0 12 -13 16 -30 6 -28 9 -30 56 -30 27 0 49 3 49 8 0 4 -19 58 -41 120 l-42 112 -44 0 c-27 0 -43 -5 -43 -12 0 -9 -3 -9 -12 0 -13 13 -90 17 -101 5z m123 -53 c12 -8 11 -10 -7 -10 -17 0 -21 -4 -16 -17 5 -14 3 -16 -7 -6 -13 12 -8 43 7 43 4 0 15 -5 23 -10z"/>
<path d="M3154 1273 c4 -10 17 -44 29 -76 l22 -58 55 2 c30 1 68 -3 84 -10 l29 -12 -6 35 -6 35 37 -23 c71 -46 170 -46 191 0 16 37 14 54 -11 64 -13 5 -17 9 -10 9 8 1 5 9 -8 23 -17 19 -34 23 -96 26 -86 5 -104 -5 -104 -54 0 -33 -1 -34 -39 -34 -36 0 -39 2 -55 45 l-18 45 -50 0 c-44 0 -49 -2 -44 -17z m355 -39 c2 -2 -10 -4 -27 -4 -18 0 -32 5 -32 10 0 9 47 4 59 -6z m38 0 c-3 -3 -12 -4 -19 -1 -8 3 -5 6 6 6 11 1 17 -2 13 -5z m-44 -51 c-7 -2 -19 -2 -25 0 -7 3 -2 5 12 5 14 0 19 -2 13 -5z"/>
</g>
<g id="layer104" fill="#252300" stroke="none">
<path d="M863 1508 l-20 -53 -417 -3 -416 -2 0 -65 0 -65 390 0 c233 0 390 -4 390 -9 0 -5 -11 -18 -25 -29 -31 -25 -33 -67 -5 -121 10 -21 16 -41 13 -45 -11 -11 -53 -6 -53 7 0 6 -14 -26 -30 -73 -16 -47 -58 -159 -92 -250 l-63 -165 1254 -307 c690 -170 1260 -308 1266 -308 12 0 372 926 364 934 -10 9 -610 149 -663 155 -69 7 -87 28 -29 33 21 2 50 -1 64 -6 14 -5 38 -6 52 -2 22 5 27 12 27 38 0 18 -7 52 -16 75 -16 42 -18 43 -61 43 -39 0 -44 -2 -38 -17 5 -10 10 -33 13 -50 3 -26 1 -33 -12 -33 -9 0 -16 8 -16 20 0 12 -7 34 -15 50 -14 26 -21 30 -60 30 -25 0 -45 -2 -45 -5 0 -3 11 -33 25 -67 14 -34 25 -65 25 -70 0 -4 -13 -8 -29 -8 -16 0 -34 -7 -41 -15 -15 -18 -86 -19 -117 -2 -20 11 -15 12 37 12 68 0 81 9 83 56 l2 34 -72 3 c-40 2 -73 7 -73 11 0 5 29 6 65 3 56 -4 65 -3 59 11 -10 26 -60 40 -130 35 -68 -4 -84 -14 -84 -54 0 -40 -27 -35 -65 12 -34 41 -39 44 -86 44 -37 0 -49 -4 -49 -15 0 -19 -9 -19 -100 5 l-75 19 -25 -24 c-29 -28 -45 -31 -53 -11 -7 18 12 36 38 36 16 0 17 2 5 10 -10 6 333 10 978 10 l992 0 0 65 0 65 -1284 0 -1285 0 -226 55 c-125 30 -233 55 -240 55 -7 0 -21 -24 -32 -52z m915 -250 c-7 -19 -38 -22 -38 -4 0 10 9 16 21 16 12 0 19 -5 17 -12z m-277 -45 c17 -45 11 -71 -21 -88 -32 -16 -120 -21 -120 -6 0 5 -8 11 -17 13 -9 2 14 3 52 3 46 0 70 4 73 13 2 6 8 10 13 6 18 -10 10 68 -8 82 -17 13 -17 14 0 8 10 -4 23 -18 28 -31z m-629 9 c-7 -2 -12 -10 -12 -18 0 -8 -6 -11 -15 -8 -8 4 -15 12 -15 19 0 16 19 24 39 17 10 -4 11 -7 3 -10z m128 -40 c0 -49 -26 -72 -84 -72 -36 0 -106 23 -106 35 0 2 16 -1 36 -7 20 -5 53 -6 75 -3 42 7 56 31 47 80 -4 21 -3 23 13 14 13 -7 19 -21 19 -47z m370 22 c0 -8 -4 -12 -10 -9 -5 3 -10 13 -10 21 0 8 5 12 10 9 6 -3 10 -13 10 -21z m604 20 c14 -5 14 -8 0 -29 -13 -19 -18 -21 -38 -12 l-23 11 21 18 c25 21 21 19 40 12z m-74 -14 c0 -5 -12 -10 -26 -10 -14 0 -23 4 -19 10 3 6 15 10 26 10 10 0 19 -4 19 -10z m-760 -61 l0 -39 -50 0 c-40 0 -48 3 -44 15 4 9 19 15 40 15 31 0 34 2 34 31 0 17 4 28 10 24 6 -3 10 -24 10 -46z m583 44 c-7 -2 -19 -2 -25 0 -7 3 -2 5 12 5 14 0 19 -2 13 -5z m546 -22 c7 -15 11 -48 9 -72 l-3 -44 -50 -1 c-28 -1 -36 0 -17 3 l32 4 0 70 c0 73 10 87 29 40z m248 13 c-3 -3 -12 -4 -19 -1 -8 3 -5 6 6 6 11 1 17 -2 13 -5z m-567 -63 c0 -47 -94 -67 -158 -35 -18 8 -32 17 -32 18 0 1 22 -2 48 -7 68 -14 108 5 105 51 l-1 33 19 -22 c10 -12 19 -29 19 -38z m440 34 c13 -14 21 -25 18 -25 -2 0 -15 11 -28 25 -13 14 -21 25 -18 25 2 0 15 -11 28 -25z m-560 -5 c0 -5 -4 -10 -10 -10 -5 0 -10 5 -10 10 0 6 5 10 10 10 6 0 10 -4 10 -10z m-542 -27 c6 -20 -94 -17 -102 3 -5 13 3 15 46 12 30 -2 53 -8 56 -15z m1182 -65 c0 -4 -21 -7 -47 -6 l-48 1 44 4 44 4 -29 32 -29 32 33 -29 c17 -17 32 -33 32 -38z m-1290 -264 c44 -109 80 -202 80 -206 0 -4 -9 -8 -20 -8 -11 0 -20 6 -20 13 0 7 -32 92 -70 187 -48 119 -69 183 -65 199 3 13 8 21 11 19 2 -3 40 -95 84 -204z m1162 169 c25 -7 65 -81 73 -136 l7 -47 -93 2 c-92 2 -92 2 -20 5 l74 4 -6 49 c-7 62 -30 105 -65 125 -15 9 -18 13 -7 10 11 -4 28 -9 37 -12z m621 -13 c21 -23 27 -40 27 -76 0 -40 -5 -51 -38 -85 -21 -21 -57 -45 -80 -54 -46 -19 -59 -44 -48 -95 6 -35 4 -36 -24 -13 -24 21 -27 75 -4 97 8 9 26 19 39 22 13 3 26 12 29 20 3 8 12 14 19 14 8 0 27 11 43 25 26 22 29 31 28 82 -1 46 -6 59 -25 74 -18 14 -20 19 -8 19 9 0 28 -13 42 -30z m-1633 -175 c0 -123 -4 -195 -10 -195 -6 0 -10 72 -10 195 0 123 4 195 10 195 6 0 10 -72 10 -195z m100 190 c0 -2 9 -27 20 -55 28 -71 2 -67 -33 5 -26 53 -26 55 -7 55 11 0 20 -2 20 -5z m300 1 c0 -4 -43 -107 -76 -181 -9 -22 -18 -42 -18 -45 -1 -3 -17 -42 -35 -88 -23 -57 -37 -79 -42 -70 -14 21 -11 36 20 102 16 33 35 79 42 101 7 22 22 63 35 90 12 28 25 60 28 73 5 13 15 22 27 22 10 0 19 -2 19 -4z m130 -166 c0 -163 -1 -170 -20 -170 -19 0 -20 7 -20 170 0 163 1 170 20 170 19 0 20 -7 20 -170z m835 160 c-3 -5 -40 -10 -81 -10 l-74 0 0 -85 c0 -78 -2 -85 -20 -85 -19 0 -20 7 -20 90 l0 89 88 4 c48 1 93 4 100 5 7 1 10 -2 7 -8z m165 6 c0 -7 -76 -56 -88 -56 -20 0 9 49 32 53 30 6 56 8 56 3z m-684 -13 c-22 -6 -33 -14 -84 -62 -34 -33 -36 -37 -36 -105 -1 -73 2 -80 57 -138 28 -30 1 -21 -37 12 -19 17 -38 44 -41 60 -4 17 -11 30 -16 30 -16 0 -9 65 12 111 31 66 73 99 123 98 22 -1 32 -4 22 -6z m81 0 c-4 -3 -10 -3 -14 0 -3 4 0 7 7 7 7 0 10 -3 7 -7z m-1185 -75 c8 -22 -96 -292 -113 -296 -13 -2 -4 31 39 153 30 85 58 155 62 155 5 0 10 -6 12 -12z m475 -65 c-33 -3 -47 -8 -44 -16 38 -93 44 -115 38 -125 -4 -7 -22 20 -44 63 -20 42 -37 78 -37 80 0 3 30 4 68 3 57 -1 60 -2 19 -5z m1153 -58 c0 -12 -16 -15 -80 -15 l-80 0 0 -55 c0 -48 -2 -55 -20 -55 -18 0 -20 7 -20 60 l0 60 85 0 c50 0 85 4 85 10 0 6 7 10 15 10 8 0 15 -7 15 -15z m-313 -86 c8 -8 4 -18 -13 -36 -37 -40 -71 -53 -133 -52 -54 1 -55 2 -16 9 56 10 86 25 115 59 28 34 32 35 47 20z m568 -69 c-13 -14 -30 -20 -59 -19 -23 0 -34 3 -26 6 34 11 65 29 74 41 6 10 11 11 19 3 7 -7 5 -16 -8 -31z m-985 -5 c0 -13 -20 -15 -132 -13 l-133 2 118 3 c66 2 117 8 117 13 0 6 7 10 15 10 8 0 15 -7 15 -15z m730 0 c0 -12 -17 -15 -102 -13 l-103 2 88 3 c48 2 87 8 87 13 0 6 7 10 15 10 8 0 15 -7 15 -15z m-533 -11 c-3 -3 -12 -4 -19 -1 -8 3 -5 6 6 6 11 1 17 -2 13 -5z"/>
</g>
<g id="layer105" fill="#490100" stroke="none">
<path d="M863 1508 l-20 -53 -417 -3 -416 -2 0 -65 0 -65 390 0 c233 0 390 -4 390 -9 0 -5 -11 -18 -25 -29 -31 -25 -33 -67 -5 -121 10 -21 16 -41 13 -45 -11 -11 -53 -6 -53 7 0 6 -14 -26 -30 -73 -16 -47 -58 -159 -92 -250 l-63 -165 1254 -307 c690 -170 1260 -308 1266 -308 12 0 372 926 364 934 -10 9 -610 149 -663 155 -69 7 -87 28 -29 33 21 2 50 -1 64 -6 14 -5 38 -6 52 -2 22 5 27 12 27 38 0 18 -7 52 -16 75 -16 42 -18 43 -61 43 -39 0 -44 -2 -38 -17 5 -10 10 -33 13 -50 3 -26 1 -33 -12 -33 -9 0 -16 8 -16 20 0 12 -7 34 -15 50 -14 26 -21 30 -60 30 -25 0 -45 -2 -45 -5 0 -3 11 -33 25 -67 14 -34 25 -65 25 -70 0 -4 -13 -8 -29 -8 -16 0 -34 -7 -41 -15 -15 -18 -86 -19 -117 -2 -20 11 -15 12 37 12 68 0 81 9 83 56 l2 34 -72 3 c-40 2 -73 7 -73 11 0 5 29 6 65 3 56 -4 65 -3 59 11 -10 26 -60 40 -130 35 -68 -4 -84 -14 -84 -54 0 -40 -27 -35 -65 12 -34 41 -39 44 -86 44 -37 0 -49 -4 -49 -15 0 -19 -9 -19 -100 5 l-75 19 -25 -24 c-29 -28 -45 -31 -53 -11 -7 18 12 36 38 36 16 0 17 2 5 10 -10 6 333 10 978 10 l992 0 0 65 0 65 -1284 0 -1285 0 -226 55 c-125 30 -233 55 -240 55 -7 0 -21 -24 -32 -52z m915 -250 c-7 -19 -38 -22 -38 -4 0 10 9 16 21 16 12 0 19 -5 17 -12z m-277 -45 c17 -45 11 -71 -21 -88 -32 -16 -120 -21 -120 -6 0 5 -8 11 -17 13 -10 2 7 4 38 3 73 0 109 19 109 58 0 17 -8 36 -17 43 -17 13 -17 14 0 8 10 -4 23 -18 28 -31z m-629 9 c-7 -2 -12 -10 -12 -18 0 -8 -6 -11 -15 -8 -8 4 -15 12 -15 19 0 16 19 24 39 17 10 -4 11 -7 3 -10z m128 -40 c0 -49 -26 -72 -84 -72 -36 0 -106 23 -106 35 0 2 16 -1 36 -7 20 -5 53 -6 75 -3 42 7 56 31 47 80 -4 21 -3 23 13 14 13 -7 19 -21 19 -47z m370 27 c0 -11 -4 -17 -10 -14 -5 3 -10 13 -10 21 0 8 5 14 10 14 6 0 10 -9 10 -21z m604 15 c14 -5 14 -8 0 -29 -13 -19 -18 -21 -38 -12 l-23 11 21 18 c25 21 21 19 40 12z m-74 -14 c0 -5 -12 -10 -26 -10 -14 0 -23 4 -19 10 3 6 15 10 26 10 10 0 19 -4 19 -10z m-760 -61 l0 -39 -50 0 c-40 0 -48 3 -44 15 4 9 19 15 40 15 31 0 34 2 34 31 0 17 4 28 10 24 6 -3 10 -24 10 -46z m583 44 c-7 -2 -19 -2 -25 0 -7 3 -2 5 12 5 14 0 19 -2 13 -5z m546 -22 c7 -15 11 -48 9 -72 l-3 -44 -50 -1 c-28 -1 -36 0 -17 3 l32 4 0 70 c0 73 10 87 29 40z m248 13 c-3 -3 -12 -4 -19 -1 -8 3 -5 6 6 6 11 1 17 -2 13 -5z m-567 -63 c0 -47 -94 -67 -158 -35 -18 8 -32 17 -32 18 0 1 22 -2 48 -7 68 -14 108 5 105 51 l-1 33 19 -22 c10 -12 19 -29 19 -38z m440 34 c13 -14 21 -25 18 -25 -2 0 -15 11 -28 25 -13 14 -21 25 -18 25 2 0 15 -11 28 -25z m-560 -5 c0 -5 -4 -10 -10 -10 -5 0 -10 5 -10 10 0 6 5 10 10 10 6 0 10 -4 10 -10z m-542 -27 c6 -20 -94 -17 -102 3 -5 13 3 15 46 12 30 -2 53 -8 56 -15z m1182 -65 c0 -4 -21 -7 -47 -6 -44 1 -45 2 -10 5 43 5 44 8 15 42 -19 21 -17 20 10 -3 17 -17 32 -33 32 -38z m-1290 -264 c44 -109 80 -202 80 -206 0 -4 -9 -8 -20 -8 -11 0 -20 6 -20 13 0 7 -32 92 -70 187 -48 119 -69 183 -65 199 3 13 8 21 11 19 2 -3 40 -95 84 -204z m1162 169 c25 -7 65 -81 73 -136 l7 -47 -93 2 c-92 2 -92 2 -20 5 l74 4 -6 49 c-7 62 -30 105 -65 125 -15 9 -18 13 -7 10 11 -4 28 -9 37 -12z m621 -13 c21 -23 27 -40 27 -77 0 -42 -4 -50 -45 -90 -25 -24 -51 -43 -59 -43 -7 0 -26 -10 -41 -22 -24 -19 -27 -26 -22 -65 2 -23 3 -43 1 -43 -18 0 -44 40 -44 67 0 35 20 60 55 69 13 3 26 12 29 20 3 8 12 14 19 14 8 0 27 11 43 25 26 22 29 31 28 82 -1 46 -6 59 -25 74 -18 14 -20 19 -8 19 9 0 28 -13 42 -30z m-1633 -175 c0 -123 -4 -195 -10 -195 -6 0 -10 72 -10 195 0 123 4 195 10 195 6 0 10 -72 10 -195z m100 190 c0 -2 9 -27 20 -55 28 -71 2 -67 -33 5 -26 53 -26 55 -7 55 11 0 20 -2 20 -5z m300 2 c0 -6 -161 -391 -165 -395 -2 -2 -7 7 -10 21 -5 18 2 45 23 89 16 35 36 81 43 103 7 22 22 63 35 90 12 28 25 60 28 73 5 13 15 22 27 22 10 0 19 -1 19 -3z m130 -167 c0 -163 -1 -170 -20 -170 -19 0 -20 7 -20 170 0 163 1 170 20 170 19 0 20 -7 20 -170z m835 160 c-3 -5 -40 -10 -81 -10 l-74 0 0 -85 c0 -78 -2 -85 -20 -85 -19 0 -20 7 -20 90 l0 89 88 4 c48 1 93 4 100 5 7 1 10 -2 7 -8z m165 6 c0 -7 -76 -56 -88 -56 -20 0 9 49 32 53 30 6 56 8 56 3z m-684 -13 c-22 -6 -33 -14 -84 -62 -34 -33 -36 -37 -36 -105 -1 -73 2 -80 57 -138 28 -30 1 -21 -37 12 -19 17 -38 44 -41 60 -4 17 -11 30 -16 30 -16 0 -9 65 12 111 31 66 73 99 123 98 22 -1 32 -4 22 -6z m81 0 c-4 -3 -10 -3 -14 0 -3 4 0 7 7 7 7 0 10 -3 7 -7z m-1185 -75 c8 -22 -96 -292 -113 -296 -13 -2 -4 31 39 153 30 85 58 155 62 155 5 0 10 -6 12 -12z m475 -65 c-33 -3 -47 -8 -44 -16 38 -93 44 -115 38 -125 -4 -7 -22 20 -44 63 -20 42 -37 78 -37 80 0 3 30 4 68 3 57 -1 60 -2 19 -5z m1153 -58 c0 -12 -16 -15 -80 -15 l-80 0 0 -55 c0 -48 -2 -55 -20 -55 -18 0 -20 7 -20 60 l0 60 85 0 c50 0 85 4 85 10 0 6 7 10 15 10 8 0 15 -7 15 -15z m-313 -86 c8 -8 4 -18 -13 -36 -37 -40 -71 -53 -133 -52 -54 1 -55 2 -16 9 56 10 86 25 115 59 28 34 32 35 47 20z m568 -69 c-13 -14 -30 -20 -59 -19 -23 0 -34 3 -26 6 34 11 65 29 74 41 6 10 11 11 19 3 7 -7 5 -16 -8 -31z m-985 -5 c0 -13 -20 -15 -132 -13 l-133 2 118 3 c66 2 117 8 117 13 0 6 7 10 15 10 8 0 15 -7 15 -15z m730 0 c0 -12 -17 -15 -102 -13 l-103 2 88 3 c48 2 87 8 87 13 0 6 7 10 15 10 8 0 15 -7 15 -15z m-533 -11 c-3 -3 -12 -4 -19 -1 -8 3 -5 6 6 6 11 1 17 -2 13 -5z"/>
</g>
<g id="layer106" fill="#650000" stroke="none">
<path d="M76 1218 c31 -40 71 -92 88 -115 31 -42 32 -42 94 -43 l62 0 0 115 0 115 -50 0 c-27 0 -50 -4 -50 -10 0 -13 -77 -13 -85 0 -3 6 -31 10 -61 10 l-55 0 57 -72z m143 -35 c-1 -21 -3 -30 -6 -20 -2 9 -9 17 -14 17 -5 0 -9 9 -9 20 0 11 7 20 15 20 11 0 15 -10 14 -37z"/>
<path d="M544 1273 c4 -10 17 -44 29 -75 l22 -58 50 -1 c27 0 60 -2 73 -5 23 -4 26 4 16 44 -4 15 -14 22 -31 22 -31 0 -49 18 -58 58 -6 31 -8 32 -57 32 -44 0 -49 -2 -44 -17z"/>
</g>
<g id="layer107" fill="#bd090f" stroke="none">
<path d="M863 1508 l-20 -53 -417 -3 -416 -2 0 -65 0 -65 390 0 c233 0 390 -4 390 -9 0 -5 -11 -18 -25 -29 -31 -25 -33 -67 -5 -122 26 -50 26 -50 -10 -50 -17 0 -30 5 -30 13 0 6 -14 -26 -30 -73 -16 -47 -58 -159 -92 -250 l-63 -165 1254 -307 c690 -170 1260 -308 1266 -308 12 0 372 926 364 934 -12 11 -646 156 -684 156 -32 0 -45 4 -45 14 0 18 63 25 101 12 14 -5 38 -6 52 -2 22 5 27 12 27 38 0 18 -7 52 -16 75 -16 42 -18 43 -61 43 -39 0 -44 -2 -38 -17 5 -10 10 -33 13 -50 3 -26 1 -33 -12 -33 -9 0 -16 8 -16 20 0 12 -7 34 -15 50 -14 26 -21 30 -60 30 -25 0 -45 -2 -45 -5 0 -3 11 -33 25 -67 14 -34 25 -65 25 -70 0 -4 -14 -8 -30 -8 -18 0 -33 -6 -36 -15 -8 -19 -101 -20 -125 -2 -14 10 -6 12 42 12 67 0 80 9 82 56 l2 34 -72 3 c-40 2 -73 7 -73 12 0 5 28 7 65 3 57 -5 65 -4 60 10 -11 26 -61 40 -131 35 -68 -4 -84 -14 -84 -54 0 -40 -27 -35 -65 12 -34 41 -39 44 -86 44 -37 0 -49 -4 -49 -15 0 -19 -9 -19 -100 5 l-75 19 -25 -24 c-29 -28 -45 -31 -53 -11 -7 18 12 36 38 36 16 0 17 2 5 10 -10 6 333 10 978 10 l992 0 0 65 0 65 -1284 0 -1285 0 -226 55 c-125 30 -233 55 -240 55 -7 0 -21 -24 -32 -52z m915 -250 c-7 -19 -38 -22 -38 -4 0 10 9 16 21 16 12 0 19 -5 17 -12z m-778 -77 c0 -52 -26 -71 -95 -71 -30 0 -55 5 -55 10 0 6 -6 10 -14 10 -8 0 -17 4 -20 8 -3 5 16 4 42 -1 66 -14 106 5 110 51 2 18 -3 41 -10 49 -11 13 -8 13 15 -1 21 -15 27 -26 27 -55z m501 32 c25 -67 -6 -103 -91 -103 -27 0 -50 4 -50 9 0 5 -8 11 -17 13 -10 2 7 4 38 3 73 0 109 19 109 58 0 17 -8 36 -17 43 -17 13 -17 14 0 8 10 -4 23 -18 28 -31z m-629 9 c-7 -2 -12 -10 -12 -18 0 -8 -6 -11 -15 -8 -8 4 -15 12 -15 19 0 16 19 24 39 17 10 -4 11 -7 3 -10z m501 -12 c-3 -11 -9 -17 -14 -14 -14 8 -10 34 5 34 9 0 12 -7 9 -20z m601 14 c14 -5 14 -8 0 -29 -13 -19 -18 -21 -38 -12 l-23 11 21 18 c25 21 21 19 40 12z m-74 -14 c0 -5 -12 -10 -26 -10 -14 0 -23 4 -19 10 3 6 15 10 26 10 10 0 19 -4 19 -10z m-760 -61 l0 -39 -50 0 c-40 0 -48 3 -44 15 4 9 19 15 40 15 31 0 34 2 34 31 0 17 4 28 10 24 6 -3 10 -24 10 -46z m583 44 c-7 -2 -19 -2 -25 0 -7 3 -2 5 12 5 14 0 19 -2 13 -5z m546 -22 c7 -15 11 -48 9 -72 l-3 -44 -55 -1 c-34 -1 -40 0 -17 3 l37 4 0 70 c0 73 10 87 29 40z m248 13 c-3 -3 -12 -4 -19 -1 -8 3 -5 6 6 6 11 1 17 -2 13 -5z m-567 -63 c0 -47 -94 -67 -158 -35 -18 8 -32 17 -32 18 0 1 22 -2 48 -7 68 -14 108 5 105 51 l-1 33 19 -22 c10 -12 19 -29 19 -38z m440 34 c13 -14 21 -25 18 -25 -2 0 -15 11 -28 25 -13 14 -21 25 -18 25 2 0 15 -11 28 -25z m-560 -5 c0 -5 -4 -10 -10 -10 -5 0 -10 5 -10 10 0 6 5 10 10 10 6 0 10 -4 10 -10z m-542 -27 c6 -20 -94 -17 -102 3 -5 13 3 15 46 12 30 -2 53 -8 56 -15z m1182 -65 c0 -4 -24 -7 -52 -6 -51 1 -51 2 -10 5 23 2 42 7 42 10 0 4 -10 18 -22 32 -19 21 -17 20 10 -3 17 -17 32 -33 32 -38z m-1290 -264 c44 -109 80 -202 80 -206 0 -4 -9 -8 -20 -8 -11 0 -20 6 -20 13 0 7 -32 92 -70 187 -48 119 -69 183 -65 199 3 13 8 21 11 19 2 -3 40 -95 84 -204z m1162 169 c25 -7 67 -85 74 -137 l7 -46 -94 2 c-92 2 -92 2 -20 5 l74 4 -6 49 c-7 62 -30 105 -65 125 -15 9 -18 13 -7 10 11 -4 28 -9 37 -12z m621 -13 c21 -23 27 -40 27 -77 0 -42 -4 -50 -45 -90 -25 -24 -51 -43 -59 -43 -7 0 -26 -10 -41 -22 -24 -19 -27 -26 -22 -65 2 -23 3 -43 1 -43 -18 0 -44 40 -44 67 0 35 20 60 55 69 13 3 26 12 29 20 3 8 12 14 19 14 8 0 27 11 43 25 26 22 29 31 28 82 -1 46 -6 59 -25 74 -18 14 -20 19 -8 19 9 0 28 -13 42 -30z m-1633 -175 c0 -123 -4 -195 -10 -195 -6 0 -10 72 -10 195 0 123 4 195 10 195 6 0 10 -72 10 -195z m100 190 c0 -2 9 -27 20 -55 28 -71 2 -67 -33 5 -26 53 -26 55 -7 55 11 0 20 -2 20 -5z m300 1 c0 -6 -160 -390 -165 -394 -2 -2 -7 7 -10 21 -5 18 2 45 23 89 16 35 36 81 43 103 7 22 22 63 35 90 12 28 25 60 28 73 5 13 15 22 27 22 10 0 19 -2 19 -4z m130 -166 c0 -163 -1 -170 -20 -170 -19 0 -20 7 -20 170 0 163 1 170 20 170 19 0 20 -7 20 -170z m840 160 c0 -6 -33 -10 -80 -10 l-80 0 0 -85 c0 -78 -2 -85 -20 -85 -19 0 -20 7 -20 90 l0 89 88 4 c48 1 93 4 100 5 6 1 12 -2 12 -8z m160 6 c0 -7 -76 -56 -88 -56 -20 0 9 49 32 53 30 6 56 8 56 3z m-679 -13 c-26 -5 -36 -12 -89 -62 -35 -33 -36 -37 -37 -105 0 -73 3 -80 58 -138 28 -30 1 -21 -37 12 -19 17 -38 44 -41 60 -4 17 -11 30 -16 30 -16 0 -9 65 12 111 32 69 72 99 128 98 25 -1 35 -4 22 -6z m76 0 c-4 -3 -10 -3 -14 0 -3 4 0 7 7 7 7 0 10 -3 7 -7z m-1185 -75 c8 -22 -96 -292 -113 -296 -13 -2 -4 31 39 153 30 85 58 155 62 155 5 0 10 -6 12 -12z m475 -65 c-33 -3 -47 -8 -44 -16 38 -93 44 -115 38 -125 -4 -7 -22 20 -44 63 -20 42 -37 78 -37 80 0 3 30 4 68 3 57 -1 60 -2 19 -5z m1153 -58 c0 -12 -16 -15 -80 -15 l-80 0 0 -55 c0 -48 -2 -55 -20 -55 -18 0 -20 7 -20 60 l0 60 85 0 c50 0 85 4 85 10 0 6 7 10 15 10 8 0 15 -7 15 -15z m-313 -86 c8 -8 4 -18 -13 -36 -37 -40 -71 -53 -133 -52 -54 1 -55 2 -16 9 56 10 86 25 115 59 28 34 32 35 47 20z m568 -69 c-13 -14 -30 -20 -59 -19 -23 0 -34 3 -26 6 34 11 65 29 74 41 6 10 11 11 19 3 7 -7 5 -16 -8 -31z m-985 -5 c0 -13 -21 -15 -137 -13 l-138 2 123 3 c70 2 122 8 122 13 0 6 7 10 15 10 8 0 15 -7 15 -15z m730 0 c0 -12 -17 -15 -102 -13 l-103 2 88 3 c48 2 87 8 87 13 0 6 7 10 15 10 8 0 15 -7 15 -15z m-533 -11 c-3 -3 -12 -4 -19 -1 -8 3 -5 6 6 6 11 1 17 -2 13 -5z"/>
</g>
<g id="layer108" fill="#0603d8" stroke="none">
<path d="M863 1508 l-20 -53 -417 -3 -416 -2 0 -65 0 -65 390 0 c233 0 390 -4 390 -9 0 -5 -11 -18 -25 -29 -33 -26 -33 -73 0 -129 l24 -43 -35 0 c-20 0 -34 5 -34 13 0 6 -14 -26 -30 -73 -16 -47 -58 -159 -92 -250 l-63 -165 1254 -307 c690 -170 1260 -308 1266 -308 12 0 372 926 364 934 -12 11 -646 156 -684 156 -32 0 -45 4 -45 14 0 18 63 25 101 12 14 -5 38 -6 52 -2 22 5 27 12 27 38 0 18 -7 52 -16 75 -16 42 -18 43 -61 43 -39 0 -44 -2 -38 -17 5 -10 10 -33 13 -50 3 -26 1 -33 -12 -33 -9 0 -16 8 -16 20 0 12 -7 34 -15 50 -14 26 -21 30 -60 30 -25 0 -45 -2 -45 -5 0 -3 11 -33 25 -67 14 -34 25 -65 25 -69 0 -4 -15 -9 -32 -11 -20 -2 -32 -8 -30 -15 3 -17 -107 -17 -129 0 -14 10 -6 12 42 12 67 0 80 9 82 56 l2 34 -72 3 c-40 2 -73 7 -73 12 0 5 28 7 65 3 57 -5 65 -4 60 10 -11 26 -61 40 -131 35 -68 -4 -84 -14 -84 -54 0 -40 -27 -35 -65 12 -34 41 -39 44 -86 44 -37 0 -49 -4 -49 -15 0 -19 -9 -19 -100 5 l-75 19 -25 -24 c-29 -28 -45 -31 -53 -11 -7 18 12 36 38 36 16 0 17 2 5 10 -10 6 333 10 978 10 l992 0 0 65 0 65 -1284 0 -1285 0 -226 55 c-125 30 -233 55 -240 55 -7 0 -21 -24 -32 -52z m915 -250 c-7 -19 -38 -22 -38 -4 0 10 9 16 21 16 12 0 19 -5 17 -12z m-778 -79 c0 -24 -6 -41 -16 -47 -9 -5 -15 -13 -15 -17 1 -12 -113 -6 -117 6 -2 5 -10 9 -17 9 -8 0 -16 4 -19 8 -3 5 16 4 42 -1 66 -14 106 5 110 51 2 18 -3 41 -10 49 -11 13 -8 13 15 -1 22 -15 27 -26 27 -57z m501 34 c25 -67 -6 -103 -91 -103 -27 0 -50 4 -50 9 0 5 -8 11 -17 13 -10 2 7 4 38 3 73 0 109 19 109 58 0 17 -8 36 -17 43 -17 13 -17 14 0 8 10 -4 23 -18 28 -31z m-629 9 c-7 -2 -12 -10 -12 -18 0 -8 -6 -11 -15 -8 -8 4 -15 12 -15 19 0 16 19 24 39 17 10 -4 11 -7 3 -10z m501 -12 c-3 -11 -9 -17 -14 -14 -14 8 -10 34 5 34 9 0 12 -7 9 -20z m601 14 c14 -5 14 -8 0 -29 -13 -19 -18 -21 -38 -12 l-23 11 21 18 c25 21 21 19 40 12z m-74 -14 c0 -5 -12 -10 -26 -10 -14 0 -23 4 -19 10 3 6 15 10 26 10 10 0 19 -4 19 -10z m-760 -61 l0 -39 -50 0 c-40 0 -48 3 -44 15 4 9 19 15 40 15 31 0 34 2 34 31 0 17 4 28 10 24 6 -3 10 -24 10 -46z m583 44 c-7 -2 -19 -2 -25 0 -7 3 -2 5 12 5 14 0 19 -2 13 -5z m546 -22 c7 -15 11 -48 9 -72 l-3 -44 -60 -1 c-39 -1 -45 0 -17 3 l42 4 0 70 c0 73 10 87 29 40z m248 13 c-3 -3 -12 -4 -19 -1 -8 3 -5 6 6 6 11 1 17 -2 13 -5z m-567 -63 c0 -47 -94 -67 -158 -35 -18 8 -32 17 -32 18 0 1 22 -2 48 -7 68 -14 108 5 105 51 l-1 33 19 -22 c10 -12 19 -29 19 -38z m440 34 c13 -14 21 -25 18 -25 -2 0 -15 11 -28 25 -13 14 -21 25 -18 25 2 0 15 -11 28 -25z m-560 -5 c0 -5 -4 -10 -10 -10 -5 0 -10 5 -10 10 0 6 5 10 10 10 6 0 10 -4 10 -10z m-541 -23 c16 -20 9 -22 -47 -19 -32 3 -53 9 -56 18 -7 19 87 20 103 1z m1181 -69 c0 -4 -24 -7 -52 -6 -51 1 -51 2 -10 5 23 2 42 7 42 10 0 4 -10 18 -22 32 -19 21 -17 20 10 -3 17 -17 32 -33 32 -38z m-1330 -165 c24 -60 49 -120 57 -135 7 -15 14 -30 14 -33 0 -2 11 -32 25 -67 29 -75 29 -78 4 -78 -11 0 -20 6 -20 13 0 7 -32 92 -70 187 -46 114 -69 183 -65 198 3 12 7 22 9 22 2 0 23 -48 46 -107z m1206 70 c27 -15 74 -110 74 -151 l0 -32 -92 2 c-92 2 -92 2 -19 5 l74 4 -6 49 c-8 62 -30 105 -65 125 -20 11 -22 14 -7 12 11 -2 29 -8 41 -14z m617 -13 c21 -23 27 -40 27 -77 0 -42 -4 -50 -45 -90 -25 -24 -52 -43 -60 -43 -8 0 -26 -11 -41 -25 -23 -21 -26 -30 -21 -65 6 -45 5 -46 -23 -23 -24 21 -27 75 -4 97 8 9 26 19 39 22 13 3 26 12 29 20 3 8 12 14 19 14 8 0 27 11 43 25 26 22 29 31 28 82 -1 46 -6 59 -25 74 -18 14 -20 19 -8 19 9 0 28 -13 42 -30z m-1633 -175 c0 -123 -4 -195 -10 -195 -6 0 -10 72 -10 195 0 123 4 195 10 195 6 0 10 -72 10 -195z m100 190 c0 -2 9 -27 20 -55 28 -71 2 -67 -33 5 -26 53 -26 55 -7 55 11 0 20 -2 20 -5z m300 1 c0 -6 -160 -390 -165 -394 -2 -2 -7 7 -10 21 -5 18 2 45 23 89 16 35 36 81 43 103 7 22 22 63 35 90 12 28 25 60 28 73 5 13 15 22 27 22 10 0 19 -2 19 -4z m135 -166 c0 -170 0 -170 -22 -170 -23 0 -23 0 -23 170 0 170 0 170 23 170 22 0 22 0 22 -170z m840 160 c4 -6 -25 -10 -79 -10 l-86 0 0 -85 c0 -78 -2 -85 -20 -85 -19 0 -20 7 -20 90 l0 89 88 4 c48 1 92 4 99 5 6 1 15 -2 18 -8z m155 6 c0 -7 -76 -56 -88 -56 -20 0 9 49 32 53 30 6 56 8 56 3z m-674 -13 c-31 -5 -39 -10 -94 -62 -35 -34 -36 -37 -36 -105 0 -72 3 -81 57 -138 28 -30 1 -21 -37 12 -19 17 -38 44 -41 60 -4 17 -11 30 -16 30 -16 0 -9 65 12 111 11 24 34 56 51 72 26 23 39 27 82 26 31 -1 40 -4 22 -6z m71 0 c-4 -3 -10 -3 -14 0 -3 4 0 7 7 7 7 0 10 -3 7 -7z m-1185 -75 c8 -22 -96 -292 -113 -296 -13 -2 -4 31 39 153 30 85 58 155 62 155 5 0 10 -6 12 -12z m518 -66 c0 -4 -21 -5 -47 -3 -36 2 -45 0 -41 -10 3 -8 15 -37 26 -65 33 -82 10 -81 -31 1 -20 42 -37 78 -37 80 0 3 29 5 65 5 36 0 65 -3 65 -8z m1110 -57 c0 -12 -16 -15 -80 -15 l-80 0 0 -55 c0 -48 -2 -55 -20 -55 -18 0 -20 7 -20 60 l0 60 85 0 c50 0 85 4 85 10 0 6 7 10 15 10 8 0 15 -7 15 -15z m-313 -86 c8 -8 4 -18 -13 -36 -37 -40 -71 -53 -133 -52 -54 1 -55 2 -16 9 56 10 86 25 115 59 28 34 32 35 47 20z m568 -69 c-13 -14 -30 -20 -59 -19 -23 0 -34 3 -26 6 34 11 65 29 74 41 6 10 11 11 19 3 7 -7 5 -16 -8 -31z m-985 -5 c0 -13 -22 -15 -142 -13 l-143 2 128 3 c73 2 127 8 127 13 0 6 7 10 15 10 8 0 15 -7 15 -15z m730 0 c0 -12 -17 -15 -102 -13 l-103 2 88 3 c48 2 87 8 87 13 0 6 7 10 15 10 8 0 15 -7 15 -15z m-533 -11 c-3 -3 -12 -4 -19 -1 -8 3 -5 6 6 6 11 1 17 -2 13 -5z"/>
</g>
<g id="layer109" fill="#d8060c" stroke="none">
<path d="M865 1513 c-10 -26 -18 -52 -18 -58 0 -7 -137 -10 -416 -10 l-416 0 -1 -62 0 -63 392 3 c372 2 392 1 383 -16 -6 -9 -19 -23 -29 -30 -28 -17 -26 -72 5 -124 l24 -43 -35 0 c-20 0 -34 5 -34 13 0 6 -14 -26 -30 -73 -16 -47 -58 -159 -92 -250 l-63 -165 1254 -307 c690 -170 1260 -308 1266 -308 12 0 372 926 364 934 -12 11 -646 156 -684 156 -32 0 -45 4 -45 14 0 18 63 25 101 12 14 -5 38 -6 52 -2 22 5 27 12 27 38 0 18 -7 52 -16 75 -16 42 -18 43 -61 43 -39 0 -44 -2 -38 -17 5 -10 10 -33 13 -50 3 -26 1 -33 -12 -33 -9 0 -16 8 -16 20 0 12 -7 34 -15 50 -14 26 -21 30 -60 30 -25 0 -45 -2 -45 -5 0 -3 11 -33 25 -67 14 -34 25 -65 25 -69 0 -4 -15 -9 -32 -11 -20 -2 -32 -8 -30 -15 3 -17 -107 -17 -129 0 -14 10 -6 12 42 12 67 0 80 9 82 56 l2 34 -72 3 c-40 2 -73 7 -73 12 0 5 28 7 65 3 57 -5 65 -4 60 10 -11 26 -61 40 -131 35 -68 -4 -84 -14 -84 -54 0 -40 -27 -35 -65 12 -34 41 -39 44 -86 44 -37 0 -49 -4 -49 -15 0 -19 -9 -19 -100 5 l-75 19 -22 -21 c-28 -26 -29 -45 -3 -53 18 -6 19 -8 4 -29 -13 -21 -18 -22 -39 -12 -13 6 -20 13 -15 14 6 2 8 8 4 13 -3 5 -1 8 4 7 6 -2 10 0 11 5 3 21 0 26 -12 21 -17 -6 -18 22 -2 53 l13 24 996 -1 996 0 0 65 0 65 -1284 0 -1285 0 -226 55 c-125 30 -233 55 -240 55 -7 0 -20 -21 -30 -47z m945 -167 c0 -3 -5 -8 -12 -12 -7 -4 -8 -3 -4 4 7 12 16 16 16 8z m-140 -40 c0 -3 -5 -8 -12 -12 -7 -4 -8 -3 -4 4 7 12 16 16 16 8z m117 -48 c1 -13 -5 -18 -27 -18 -21 0 -27 4 -25 18 4 20 0 18 28 18 15 0 24 -6 24 -18z m-787 -79 c0 -24 -6 -41 -16 -47 -9 -5 -15 -13 -15 -17 1 -12 -113 -6 -117 6 -2 5 -10 9 -17 9 -8 0 -16 4 -19 8 -3 5 16 4 42 -1 66 -14 106 5 110 51 2 18 -3 41 -10 49 -11 13 -8 13 15 -1 22 -15 27 -26 27 -57z m501 34 c25 -67 -6 -103 -91 -103 -27 0 -50 4 -50 9 0 5 -8 11 -17 13 -10 2 7 4 38 3 73 0 109 19 109 58 0 17 -8 36 -17 43 -17 13 -17 14 0 8 10 -4 23 -18 28 -31z m-629 9 c-7 -2 -12 -10 -12 -18 0 -8 -6 -11 -15 -8 -8 4 -15 12 -15 19 0 16 19 24 39 17 10 -4 11 -7 3 -10z m813 8 c3 -5 4 -10 1 -10 -3 0 -8 5 -11 10 -3 6 -4 10 -1 10 3 0 8 -4 11 -10z m125 6 c0 -3 -5 -8 -12 -12 -7 -4 -8 -3 -4 4 7 12 16 16 16 8z m-437 -26 c-3 -11 -9 -17 -14 -14 -14 8 -10 34 5 34 9 0 12 -7 9 -20z m527 0 c0 -5 -7 -10 -15 -10 -8 0 -18 0 -22 -1 -4 0 -9 4 -11 10 -2 6 8 11 22 11 14 0 26 -4 26 -10z m-760 -61 l0 -39 -50 0 c-40 0 -48 3 -44 15 4 9 19 15 40 15 31 0 34 2 34 31 0 17 4 28 10 24 6 -3 10 -24 10 -46z m583 44 c-7 -2 -19 -2 -25 0 -7 3 -2 5 12 5 14 0 19 -2 13 -5z m546 -22 c7 -15 11 -48 9 -72 l-3 -44 -60 -1 c-39 -1 -45 0 -17 3 l42 4 0 70 c0 73 10 87 29 40z m248 13 c-3 -3 -12 -4 -19 -1 -8 3 -5 6 6 6 11 1 17 -2 13 -5z m-586 -26 c40 -45 8 -88 -65 -88 -36 0 -106 23 -106 35 0 6 50 -1 57 -8 10 -11 33 -8 69 9 33 16 39 33 21 62 -13 20 4 14 24 -10z m459 -3 c13 -14 21 -25 18 -25 -2 0 -15 11 -28 25 -13 14 -21 25 -18 25 2 0 15 -11 28 -25z m-566 -13 c-22 -5 -31 7 -14 18 9 6 17 5 22 -3 4 -7 1 -13 -8 -15z m-84 14 c0 -3 -5 -8 -12 -12 -7 -4 -8 -3 -4 4 7 12 16 16 16 8z m-451 -29 c16 -20 9 -22 -47 -19 -32 3 -53 9 -56 18 -7 19 87 20 103 1z m591 -3 c0 -8 -19 -13 -24 -6 -3 5 1 9 9 9 8 0 15 -2 15 -3z m-133 -11 c-4 -3 -10 -3 -14 0 -3 4 0 7 7 7 7 0 10 -3 7 -7z m723 -55 c0 -4 -24 -7 -52 -6 -51 1 -51 2 -10 5 23 2 42 7 42 10 0 4 -10 18 -22 32 -19 21 -17 20 10 -3 17 -17 32 -33 32 -38z m-623 45 c-4 -3 -10 -3 -14 0 -3 4 0 7 7 7 7 0 10 -3 7 -7z m-707 -210 c24 -60 49 -120 57 -135 7 -15 14 -30 14 -33 0 -2 11 -32 25 -67 29 -75 29 -78 4 -78 -11 0 -20 6 -20 13 0 7 -32 92 -70 187 -46 114 -69 183 -65 198 3 12 7 22 9 22 2 0 23 -48 46 -107z m1206 70 c27 -15 74 -110 74 -151 l0 -32 -92 2 c-92 2 -92 2 -19 5 l74 4 -6 49 c-8 62 -30 105 -65 125 -20 11 -22 14 -7 12 11 -2 29 -8 41 -14z m617 -13 c21 -23 27 -40 27 -77 0 -42 -4 -50 -45 -90 -25 -24 -52 -43 -60 -43 -8 0 -26 -11 -41 -25 -23 -21 -26 -30 -21 -65 6 -45 5 -46 -23 -23 -24 21 -27 75 -4 97 8 9 26 19 39 22 13 3 26 12 29 20 3 8 12 14 19 14 8 0 27 11 43 25 26 22 29 31 28 82 -1 46 -6 59 -25 74 -18 14 -20 19 -8 19 9 0 28 -13 42 -30z m-1633 -175 c0 -123 -4 -195 -10 -195 -6 0 -10 72 -10 195 0 123 4 195 10 195 6 0 10 -72 10 -195z m100 190 c0 -2 9 -27 20 -55 28 -71 2 -67 -33 5 -26 53 -26 55 -7 55 11 0 20 -2 20 -5z m300 1 c0 -6 -160 -390 -165 -394 -2 -2 -7 7 -10 21 -5 18 2 45 23 89 16 35 36 81 43 103 7 22 22 63 35 90 12 28 25 60 28 73 5 13 15 22 27 22 10 0 19 -2 19 -4z m135 -166 c0 -170 0 -170 -22 -170 -23 0 -23 0 -23 170 0 170 0 170 23 170 22 0 22 0 22 -170z m840 160 c4 -6 -25 -10 -79 -10 l-86 0 0 -85 c0 -78 -2 -85 -20 -85 -19 0 -20 7 -20 90 l0 89 88 4 c48 1 92 4 99 5 6 1 15 -2 18 -8z m155 6 c0 -7 -76 -56 -88 -56 -20 0 9 49 32 53 30 6 56 8 56 3z m-674 -13 c-31 -5 -39 -10 -94 -62 -35 -34 -36 -37 -36 -105 0 -72 3 -81 57 -138 28 -30 1 -21 -37 12 -19 17 -38 44 -41 60 -4 17 -11 30 -16 30 -16 0 -9 65 12 111 11 24 34 56 51 72 26 23 39 27 82 26 31 -1 40 -4 22 -6z m71 0 c-4 -3 -10 -3 -14 0 -3 4 0 7 7 7 7 0 10 -3 7 -7z m-1185 -75 c8 -22 -96 -292 -113 -296 -13 -2 -4 31 39 153 30 85 58 155 62 155 5 0 10 -6 12 -12z m518 -66 c0 -4 -21 -5 -47 -3 -36 2 -45 0 -41 -10 3 -8 15 -37 26 -65 33 -82 10 -81 -31 1 -20 42 -37 78 -37 80 0 3 29 5 65 5 36 0 65 -3 65 -8z m1110 -57 c0 -12 -16 -15 -80 -15 l-80 0 0 -55 c0 -48 -2 -55 -20 -55 -18 0 -20 7 -20 60 l0 60 85 0 c50 0 85 4 85 10 0 6 7 10 15 10 8 0 15 -7 15 -15z m-313 -86 c8 -8 4 -18 -13 -36 -37 -40 -71 -53 -133 -52 -54 1 -55 2 -16 9 56 10 86 25 115 59 28 34 32 35 47 20z m568 -69 c-13 -14 -30 -20 -59 -19 -23 0 -34 3 -26 6 34 11 65 29 74 41 6 10 11 11 19 3 7 -7 5 -16 -8 -31z m-985 -5 c0 -13 -22 -15 -142 -13 l-143 2 128 3 c73 2 127 8 127 13 0 6 7 10 15 10 8 0 15 -7 15 -15z m730 0 c0 -12 -17 -15 -102 -13 l-103 2 88 3 c48 2 87 8 87 13 0 6 7 10 15 10 8 0 15 -7 15 -15z m-533 -11 c-3 -3 -12 -4 -19 -1 -8 3 -5 6 6 6 11 1 17 -2 13 -5z"/>
<path d="M1948 1303 c7 -3 16 -2 19 1 4 3 -2 6 -13 5 -11 0 -14 -3 -6 -6z"/>
</g>
<g id="layer110" fill="#fc0102" stroke="none">
<path d="M874 1533 c-4 -15 -13 -38 -20 -52 -7 -13 -11 -27 -9 -30 2 -3 -184 -6 -413 -6 l-417 0 -1 -62 0 -63 392 3 c372 2 392 1 383 -16 -6 -9 -19 -23 -29 -30 -28 -17 -26 -72 4 -124 16 -27 20 -43 13 -46 -19 -6 -57 5 -58 17 0 6 -7 -9 -14 -34 -8 -25 -20 -63 -28 -85 -8 -22 -17 -49 -19 -60 -1 -11 -5 -22 -8 -25 -3 -3 -16 -32 -28 -65 -13 -33 -30 -75 -37 -92 -8 -18 -12 -39 -9 -48 4 -8 1 -15 -5 -15 -6 0 -14 -15 -19 -32 l-8 -33 108 -27 c60 -15 121 -29 136 -32 15 -3 70 -17 122 -31 83 -23 142 -37 215 -51 11 -2 81 -19 155 -39 74 -20 146 -37 160 -40 14 -2 88 -20 165 -40 77 -20 151 -38 165 -40 14 -3 84 -20 156 -39 72 -19 146 -36 165 -39 19 -3 67 -15 107 -25 39 -11 72 -18 72 -15 0 3 6 1 13 -6 8 -6 23 -9 35 -6 12 2 22 -1 22 -7 0 -6 3 -8 7 -5 3 4 11 3 17 -2 6 -5 27 -11 46 -14 19 -3 173 -41 342 -83 170 -43 310 -75 313 -72 4 3 7 15 8 27 1 11 4 21 8 21 4 0 15 24 24 52 9 29 24 67 32 84 9 17 14 37 11 44 -2 8 4 22 14 32 15 15 21 36 17 64 0 4 3 10 8 13 4 3 19 33 31 66 13 33 31 78 41 100 10 22 22 56 26 75 4 19 11 37 14 40 4 3 24 52 45 110 21 58 44 119 51 135 31 72 34 68 -78 95 -56 14 -106 25 -112 26 -5 0 -17 4 -25 7 -8 3 -31 8 -50 11 -19 3 -66 14 -105 24 -157 43 -260 64 -296 59 -28 -4 -42 -1 -51 11 -8 10 -9 13 -1 9 6 -4 13 -3 15 2 4 12 66 16 101 6 15 -4 38 -4 52 -1 20 5 25 13 25 38 0 18 -7 52 -16 75 -16 42 -18 43 -61 43 -39 0 -44 -2 -38 -17 5 -10 10 -33 13 -50 3 -26 1 -33 -12 -33 -9 0 -16 8 -16 20 0 12 -7 34 -15 50 -14 26 -21 30 -60 30 -25 0 -45 -2 -45 -5 0 -3 11 -33 25 -67 14 -34 25 -65 25 -69 0 -4 -15 -9 -32 -11 -21 -2 -33 -8 -33 -18 0 -19 -108 -18 -128 2 -12 11 -5 13 44 13 67 0 80 9 82 56 l2 34 -72 3 c-40 2 -73 7 -73 12 0 5 28 7 65 3 57 -5 65 -4 60 10 -11 26 -61 40 -131 35 -68 -4 -84 -14 -84 -54 0 -40 -27 -35 -65 12 -34 41 -39 44 -86 44 -41 0 -49 -3 -49 -19 0 -18 -3 -18 -87 3 l-88 23 -22 -22 c-28 -26 -29 -42 -3 -50 20 -6 28 -25 11 -25 -5 0 -11 -10 -15 -22 -5 -22 -6 -22 -19 -4 -8 10 -20 17 -27 14 -10 -3 -9 -8 4 -20 27 -28 37 -65 20 -78 -7 -7 -14 -9 -14 -4 0 5 -4 4 -8 -3 -10 -16 -115 -20 -120 -5 -2 7 -11 12 -20 12 -9 0 -26 8 -37 16 -19 16 -19 16 5 8 14 -4 33 -8 42 -9 10 -1 21 -4 24 -8 11 -11 33 -8 70 9 33 16 39 33 20 63 -6 9 -4 18 7 26 9 7 13 15 9 19 -4 4 -2 6 5 4 6 -2 11 0 12 5 3 21 0 26 -12 21 -17 -6 -18 22 -2 53 l13 24 996 -1 996 0 0 65 0 65 -1291 0 -1291 0 -92 24 c-50 14 -107 27 -126 30 -19 3 -75 16 -125 30 -113 33 -123 33 -131 -1z m936 -187 c0 -3 -5 -8 -12 -12 -7 -4 -8 -3 -4 4 7 12 16 16 16 8z m-800 -31 c7 -9 8 -15 2 -15 -5 0 -12 7 -16 15 -3 8 -4 15 -2 15 2 0 9 -7 16 -15z m660 -9 c0 -3 -5 -8 -12 -12 -7 -4 -8 -3 -4 4 7 12 16 16 16 8z m117 -48 c1 -13 -5 -18 -27 -18 -21 0 -27 4 -25 18 4 20 0 18 28 18 15 0 24 -6 24 -18z m-797 -23 c8 5 10 -10 8 -52 -2 -40 -7 -57 -15 -55 -7 1 -12 -3 -10 -9 1 -6 -23 -11 -63 -12 -36 0 -64 3 -64 9 1 5 -10 14 -25 21 l-26 12 30 -7 c48 -11 111 -8 129 7 18 15 22 76 6 86 -5 3 -10 12 -10 18 0 7 7 4 15 -7 7 -10 19 -15 25 -11z m505 7 c-2 -3 1 -19 8 -36 15 -37 11 -76 -8 -76 -7 0 -15 -6 -18 -14 -4 -10 -19 -12 -59 -8 -29 3 -55 8 -58 12 -3 4 -14 10 -25 12 -11 2 7 4 41 4 78 -1 114 17 114 57 0 16 -7 35 -16 41 -13 10 -13 12 5 12 11 0 18 -2 16 -4z m-623 -20 c-7 -2 -12 -10 -12 -18 0 -8 -6 -11 -15 -8 -8 4 -15 12 -15 19 0 16 19 24 39 17 10 -4 11 -7 3 -10z m813 8 c3 -5 4 -10 1 -10 -3 0 -8 5 -11 10 -3 6 -4 10 -1 10 3 0 8 -4 11 -10z m125 6 c0 -3 -5 -8 -12 -12 -7 -4 -8 -3 -4 4 7 12 16 16 16 8z m-430 -27 c0 -24 -23 -21 -28 4 -2 10 3 17 12 17 10 0 16 -9 16 -21z m245 11 c3 -5 4 -10 1 -10 -3 0 -8 5 -11 10 -3 6 -4 10 -1 10 3 0 8 -4 11 -10z m275 -10 c0 -5 -7 -10 -15 -10 -8 0 -18 0 -22 -1 -4 0 -9 4 -11 10 -2 6 8 11 22 11 14 0 26 -4 26 -10z m-758 -65 c2 -27 -1 -40 -10 -39 -6 1 -29 2 -50 3 -27 1 -39 6 -39 16 0 11 11 15 39 15 36 0 38 2 38 32 0 45 18 23 22 -27z m581 48 c-7 -2 -19 -2 -25 0 -7 3 -2 5 12 5 14 0 19 -2 13 -5z m545 -20 c6 -16 12 -48 14 -71 3 -53 -8 -60 -77 -51 l-50 6 43 1 42 2 0 70 c0 73 10 89 28 43z m249 11 c-3 -3 -12 -4 -19 -1 -8 3 -5 6 6 6 11 1 17 -2 13 -5z m-120 -21 c5 3 9 -3 9 -14 0 -10 -1 -19 -1 -19 -1 0 -12 12 -26 27 -13 15 -16 22 -7 14 9 -7 21 -10 25 -8z m-1232 -3 c3 -5 4 -10 1 -10 -3 0 -8 5 -11 10 -3 6 -4 10 -1 10 3 0 8 -4 11 -10z m659 -18 c-22 -5 -31 7 -14 18 9 6 17 5 22 -3 4 -7 1 -13 -8 -15z m-91 3 c-3 -9 -8 -14 -10 -11 -3 3 -2 9 2 15 9 16 15 13 8 -4z m714 -2 c-4 -3 -10 -3 -14 0 -3 4 0 7 7 7 7 0 10 -3 7 -7z m-1158 -12 c26 -16 3 -26 -53 -23 -40 3 -56 8 -56 18 0 16 85 20 109 5z m591 -7 c0 -8 -19 -13 -24 -6 -3 5 1 9 9 9 8 0 15 -2 15 -3z m554 -20 c3 -9 11 -12 18 -8 7 4 10 4 6 -1 -4 -4 -3 -14 4 -22 17 -21 -2 -29 -57 -22 l-50 6 48 1 c26 1 47 5 47 9 0 4 -10 17 -22 30 -12 13 -17 23 -11 23 6 0 14 -7 17 -16z m-587 -1 c-4 -3 -10 -3 -14 0 -3 4 0 7 7 7 7 0 10 -3 7 -7z m278 -93 c3 -5 4 -10 1 -10 -3 0 -8 5 -11 10 -3 6 -4 10 -1 10 3 0 8 -4 11 -10z m-979 -117 c-4 -4 19 -62 59 -148 7 -16 19 -48 26 -70 7 -22 17 -44 21 -50 16 -18 8 -45 -12 -45 -11 0 -20 6 -20 13 0 7 -33 96 -74 197 -55 137 -71 188 -64 198 9 10 18 1 40 -39 15 -29 26 -54 24 -56z m1129 97 c3 -5 4 -10 1 -10 -3 0 -8 5 -11 10 -3 6 -4 10 -1 10 3 0 8 -4 11 -10z m421 -20 c17 0 19 -20 2 -21 -7 0 -37 0 -65 1 -91 3 -93 0 -93 -91 0 -72 -2 -79 -20 -79 -19 0 -20 7 -20 90 l0 90 85 0 c74 0 85 2 86 18 0 10 3 12 6 5 2 -7 11 -13 19 -13z m-1366 -201 c0 -126 -4 -199 -10 -199 -6 0 -10 75 -10 206 0 134 3 203 10 199 6 -4 10 -83 10 -206z m110 182 c0 -9 7 -27 16 -39 8 -12 12 -22 8 -22 -3 0 -1 -7 6 -15 10 -12 9 -15 -7 -15 -13 0 -27 17 -46 55 -15 31 -27 57 -27 59 0 2 11 1 25 -2 15 -2 25 -11 25 -21z m289 0 c-15 -26 -32 -75 -30 -85 1 -5 -5 -16 -12 -25 -14 -15 -62 -128 -69 -161 -2 -8 -6 -17 -9 -20 -4 -3 -15 -25 -26 -50 -20 -44 -21 -45 -28 -18 -5 20 1 44 23 90 16 35 35 81 42 103 12 39 21 61 54 137 9 20 16 40 16 46 0 5 11 7 24 5 20 -4 23 -9 15 -22z m134 -149 l2 -172 -22 0 c-23 0 -23 0 -23 169 0 166 3 184 33 178 4 -2 9 -80 10 -175z m490 152 c44 -45 62 -83 69 -148 l3 -29 -90 2 c-108 3 -128 11 -25 11 l73 0 -6 49 c-8 63 -30 107 -65 125 -26 14 -26 15 -4 13 13 -1 34 -11 45 -23z m610 -4 c22 -24 27 -40 27 -80 0 -45 -4 -55 -32 -82 -18 -16 -51 -39 -74 -49 -54 -25 -79 -81 -51 -116 15 -20 -9 -16 -33 4 -24 21 -27 75 -4 97 8 9 26 19 39 22 13 3 26 12 29 20 3 8 12 14 19 14 8 0 27 11 43 25 26 22 29 31 28 82 -1 46 -6 59 -25 74 -18 14 -20 19 -8 19 9 0 28 -13 42 -30z m-100 -1 c4 -16 3 -19 -5 -11 -7 7 -20 5 -42 -9 -44 -27 -58 -25 -44 5 17 38 83 48 91 15z m-658 1 c-4 -6 -15 -8 -25 -5 -11 3 -28 -2 -41 -12 -33 -27 -80 -73 -75 -73 2 0 0 -16 -6 -36 -12 -46 -2 -106 23 -132 10 -12 19 -26 19 -31 0 -6 8 -15 18 -20 9 -6 12 -11 5 -11 -22 0 -81 60 -88 90 -4 17 -11 30 -16 30 -12 0 -12 77 1 85 6 3 10 15 10 27 0 11 18 38 40 59 36 35 45 39 91 39 32 0 48 -4 44 -10z m52 3 c-4 -3 -10 -3 -14 0 -3 4 0 7 7 7 7 0 10 -3 7 -7z m-1230 -20 c-4 -3 -7 0 -7 7 0 7 3 10 7 7 3 -4 3 -10 0 -14z m1258 -3 c3 -5 4 -10 1 -10 -3 0 -8 5 -11 10 -3 6 -4 10 -1 10 3 0 8 -4 11 -10z m-1211 -74 c1 -12 -5 -27 -12 -35 -7 -7 -11 -19 -8 -27 3 -7 1 -14 -3 -16 -5 -2 -24 -48 -43 -102 -24 -70 -39 -100 -51 -102 -17 -2 -24 20 -9 30 5 3 17 33 27 68 10 35 22 68 26 73 4 6 10 22 13 35 3 14 13 49 23 78 14 42 19 49 27 35 5 -9 9 -26 10 -37z m883 -13 c-4 -3 -7 0 -7 7 0 7 3 10 7 7 3 -4 3 -10 0 -14z m913 -17 c0 -3 -5 -8 -12 -12 -7 -4 -8 -3 -4 4 7 12 16 16 16 8z m-1280 -14 c0 -5 -13 -7 -30 -4 -57 8 -62 -1 -36 -65 37 -89 19 -97 -25 -12 -21 41 -38 77 -39 82 0 4 29 7 65 7 36 0 65 -4 65 -8z m1105 -57 c0 -16 -8 -18 -77 -16 l-78 2 0 -55 c0 -49 -2 -56 -20 -56 -18 0 -20 7 -20 60 l0 60 85 0 c71 0 85 3 85 16 0 9 6 14 13 12 6 -3 12 -13 12 -23z m-1545 -69 c0 -3 -5 -8 -12 -12 -7 -4 -8 -3 -4 4 7 12 16 16 16 8z m1243 -18 c6 -19 -42 -78 -59 -71 -8 3 -14 0 -14 -6 0 -7 -24 -11 -67 -10 -61 1 -64 2 -28 9 56 10 86 25 115 59 27 32 46 38 53 19z m587 -47 c0 -27 -96 -58 -116 -38 -4 4 -1 7 7 7 31 0 70 25 65 42 -3 14 0 15 20 6 13 -6 24 -14 24 -17z m-1465 9 c3 -5 1 -10 -4 -10 -6 0 -11 5 -11 10 0 6 2 10 4 10 3 0 8 -4 11 -10z m1250 -20 c3 -5 4 -10 1 -10 -3 0 -8 5 -11 10 -3 6 -4 10 -1 10 3 0 8 -4 11 -10z m-789 -16 c-2 -14 -21 -16 -141 -15 -77 1 -141 4 -144 7 -2 2 53 4 122 4 78 0 127 4 127 10 0 6 9 10 19 10 12 0 18 -6 17 -16z m727 1 c8 -20 5 -21 -113 -14 l-105 5 93 2 c53 1 92 6 92 12 0 16 27 12 33 -5z m-536 -11 c-3 -3 -12 -4 -19 -1 -8 3 -5 6 6 6 11 1 17 -2 13 -5z"/>
<path d="M1953 1303 c4 -3 10 -3 14 0 3 4 0 7 -7 7 -7 0 -10 -3 -7 -7z"/>
<path d="M544 1273 c4 -10 17 -44 29 -76 l22 -58 45 1 c25 1 47 1 50 0 28 -9 50 -8 50 3 -1 37 -14 57 -37 57 -31 0 -49 18 -58 58 -6 31 -8 32 -57 32 -44 0 -49 -2 -44 -17z"/>
</g>
<g id="layer111" fill="#0101fc" stroke="none">
<path d="M15 1440 c-3 -5 -4 -34 -3 -65 l3 -55 494 1 c482 0 495 -1 515 -20 19 -19 19 -23 4 -91 l-15 -70 54 0 53 0 0 33 1 32 29 -32 c25 -28 37 -33 75 -33 37 0 44 3 38 14 -8 14 -90 110 -125 148 -17 17 -10 18 251 18 249 0 303 -5 270 -26 -8 -5 -9 -3 -4 7 6 11 5 11 -4 3 -20 -19 -10 -69 14 -69 13 0 19 -6 17 -18 -2 -12 4 -17 21 -17 20 0 23 -4 20 -23 -6 -30 25 -67 60 -71 15 -1 30 -6 34 -9 19 -20 104 16 100 42 -5 28 -23 52 -42 55 -30 4 -30 26 -1 26 14 0 26 -4 26 -10 0 -17 26 -11 46 12 10 12 13 18 7 14 -7 -4 -13 -3 -13 3 0 6 -6 8 -13 5 -17 -6 -18 22 -2 53 l13 24 996 -1 996 0 0 65 0 65 -1954 0 c-1241 0 -1957 -4 -1961 -10z m1795 -94 c0 -3 -5 -8 -12 -12 -7 -4 -8 -3 -4 4 7 12 16 16 16 8z m14 -40 c-3 -8 -12 -12 -20 -9 -21 8 -17 23 6 23 13 0 18 -5 14 -14z m-37 -48 c1 -13 -5 -18 -27 -18 -21 0 -27 4 -25 18 4 20 0 18 28 18 15 0 24 -6 24 -18z m23 -22 c0 -3 -5 -8 -12 -12 -7 -4 -8 -3 -4 4 7 12 16 16 16 8z m14 -94 c-22 -5 -31 7 -14 18 9 6 17 5 22 -3 4 -7 1 -13 -8 -15z m56 -18 c0 -8 -19 -13 -24 -6 -3 5 1 9 9 9 8 0 15 -2 15 -3z m-33 -21 c-4 -3 -10 -3 -14 0 -3 4 0 7 7 7 7 0 10 -3 7 -7z"/>
</g>
<g id="layer112" fill="#fb6403" stroke="none">
<path d="M1005 1320 l39 -39 -16 -71 -15 -70 54 0 53 0 0 33 1 32 29 -32 c25 -28 37 -33 75 -33 54 0 54 1 -20 85 -129 148 -112 135 -179 135 l-60 0 39 -40z"/>
<path d="M76 1218 c31 -40 71 -92 88 -115 31 -43 31 -43 91 -40 l60 2 3 113 3 112 -51 0 c-27 0 -50 -4 -50 -10 0 -13 -77 -13 -85 0 -3 6 -31 10 -61 10 l-55 0 57 -72z m143 -35 c-1 -21 -3 -30 -6 -20 -2 9 -9 17 -14 17 -5 0 -9 9 -9 20 0 11 7 20 15 20 11 0 15 -10 14 -37z"/>
<path d="M342 1282 c2 -5 17 -39 33 -76 l30 -66 50 1 c28 1 60 -1 73 -5 24 -8 27 0 16 42 -5 17 -14 22 -37 22 -35 0 -56 23 -57 63 0 26 -2 27 -56 27 -31 0 -54 -4 -52 -8z"/>
<path d="M544 1273 c4 -10 17 -44 29 -76 l22 -58 49 2 c38 2 52 -1 64 -17 11 -15 13 -15 9 -2 -4 12 -2 15 9 11 15 -6 18 8 8 45 -4 15 -14 22 -31 22 -31 0 -49 18 -58 58 -6 31 -8 32 -57 32 -44 0 -49 -2 -44 -17z"/>
<path d="M758 1276 c-27 -20 -23 -72 8 -101 46 -42 153 -55 191 -23 19 15 15 70 -6 95 -11 13 -31 27 -46 33 -37 14 -127 12 -147 -4z m122 -67 c0 -20 -8 -23 -34 -13 -19 7 -21 31 -3 37 20 7 37 -4 37 -24z"/>
<path d="M1273 1284 c-7 -3 -13 -12 -13 -20 0 -8 -4 -14 -10 -14 -12 0 -14 -27 -2 -32 4 -1 15 -16 24 -33 28 -51 140 -69 198 -32 30 18 25 60 -11 98 -29 32 -36 34 -103 36 -39 1 -77 0 -83 -3z m117 -64 c13 -9 13 -11 0 -20 -19 -13 -34 -8 -38 13 -4 19 15 22 38 7z"/>
<path d="M2161 1190 c-15 -140 -18 -130 34 -130 l45 0 0 70 c0 68 12 91 25 50 3 -11 10 -20 14 -20 4 0 18 -22 31 -50 l23 -50 59 0 c32 0 58 3 58 6 0 3 -41 55 -91 115 l-91 109 -47 0 -48 0 -12 -100z"/>
<path d="M2400 1283 c-21 -8 -30 -24 -30 -51 0 -86 206 -138 233 -59 16 48 5 57 -73 57 -38 0 -70 4 -70 10 0 5 26 7 65 3 56 -5 65 -4 60 9 -3 8 -17 20 -31 27 -26 11 -127 14 -154 4z m117 -99 c-3 -3 -12 -4 -19 -1 -8 3 -5 6 6 6 11 1 17 -2 13 -5z"/>
<path d="M2625 1270 c3 -11 17 -46 30 -77 24 -61 27 -62 105 -50 3 0 17 -3 33 -7 15 -5 38 -5 52 -2 20 5 25 13 25 38 0 18 -7 52 -16 75 -16 42 -18 43 -61 43 -39 0 -44 -2 -38 -17 5 -10 10 -33 13 -50 3 -26 1 -33 -12 -33 -9 0 -16 8 -16 20 0 12 -7 34 -15 50 -14 27 -21 30 -61 30 -41 0 -45 -2 -39 -20z"/>
<path d="M2907 1283 c-11 -10 -8 -69 4 -95 15 -34 84 -62 120 -49 28 10 29 8 46 -40 l18 -49 47 0 c27 0 48 3 48 8 0 4 -19 58 -41 120 l-42 112 -44 0 c-27 0 -43 -5 -43 -12 0 -9 -3 -9 -12 0 -13 13 -90 17 -101 5z m123 -53 c13 -8 12 -10 -2 -10 -10 0 -18 -8 -18 -17 0 -13 -3 -14 -11 -6 -12 12 -6 43 8 43 4 0 15 -5 23 -10z"/>
<path d="M3154 1273 c4 -10 17 -44 29 -76 l22 -58 55 1 c30 1 68 -2 84 -6 28 -7 29 -6 23 25 l-6 31 37 -24 c46 -30 91 -40 141 -31 31 5 42 13 51 36 21 49 9 59 -70 59 -38 0 -70 4 -70 8 0 4 30 6 67 4 l66 -5 -22 24 c-18 20 -34 24 -97 27 -86 5 -104 -5 -104 -54 0 -33 -1 -34 -39 -34 -36 0 -39 2 -55 45 l-18 45 -50 0 c-44 0 -49 -2 -44 -17z m349 -90 c-7 -2 -19 -2 -25 0 -7 3 -2 5 12 5 14 0 19 -2 13 -5z"/>
<path d="M3610 1283 c0 -4 17 -58 37 -120 l37 -113 48 0 c26 0 48 3 48 8 0 4 -19 58 -41 120 l-42 112 -44 0 c-23 0 -43 -3 -43 -7z"/>
<path d="M3750 1283 c0 -4 17 -58 37 -120 l37 -113 48 0 c26 0 48 3 48 8 0 4 -19 58 -41 120 l-42 112 -44 0 c-23 0 -43 -3 -43 -7z"/>
</g>
<g id="layer113" fill="#fdf7d9" stroke="none">
<path d="M706 1127 c3 -10 9 -15 12 -12 3 3 0 11 -7 18 -10 9 -11 8 -5 -6z"/>
<path d="M978 800 c-70 -195 -74 -211 -54 -208 18 3 29 27 73 153 28 83 53 154 55 160 3 5 33 -64 69 -153 48 -123 68 -162 82 -162 9 0 17 4 17 8 0 9 -157 403 -163 409 -2 2 -38 -91 -79 -207z"/>
<path d="M2072 976 c-32 -16 -47 -32 -63 -66 -11 -25 -25 -53 -30 -62 -11 -21 -12 -108 -1 -108 4 0 13 -20 21 -44 8 -29 21 -47 37 -55 13 -6 24 -15 24 -20 0 -30 152 -45 213 -20 39 16 91 65 82 79 -10 17 -26 12 -62 -20 -18 -16 -40 -30 -48 -30 -8 0 -15 -4 -15 -10 0 -5 -15 -10 -33 -10 -65 0 -151 59 -162 111 -4 16 -11 29 -16 29 -5 0 -9 20 -9 45 0 25 5 45 10 45 6 0 10 7 10 16 0 20 31 74 43 74 5 0 15 7 23 15 11 11 37 15 90 15 62 0 77 -3 91 -20 10 -11 23 -20 29 -20 14 0 24 -23 24 -54 0 -12 5 -27 12 -34 9 -9 -5 -12 -65 -12 -62 0 -77 -3 -77 -15 0 -12 17 -15 91 -15 l92 0 -6 49 c-8 71 -30 105 -83 135 -60 33 -156 34 -222 2z"/>
<path d="M2780 992 c0 -5 -11 -14 -24 -20 -30 -14 -42 -52 -15 -52 10 0 23 8 28 19 13 24 71 35 105 20 34 -16 50 -65 35 -107 -6 -18 -17 -32 -24 -32 -7 0 -18 -6 -24 -14 -7 -8 -26 -18 -42 -21 -16 -4 -29 -12 -29 -19 0 -7 -11 -19 -25 -26 -21 -11 -25 -21 -25 -57 0 -51 21 -79 70 -93 43 -12 79 -3 108 26 19 20 20 25 8 30 -8 3 -25 -4 -37 -15 -41 -38 -99 -18 -114 39 -7 30 22 66 60 76 13 3 26 12 29 20 3 8 12 14 20 14 8 0 27 11 41 25 21 22 25 35 25 83 0 53 -2 59 -34 85 -28 21 -45 27 -85 27 -28 0 -51 -4 -51 -8z"/>
<path d="M1260 785 c0 -167 2 -195 15 -195 13 0 15 28 15 195 0 167 -2 195 -15 195 -13 0 -15 -28 -15 -195z"/>
<path d="M1363 968 c21 -53 170 -378 173 -376 2 2 90 221 151 376 3 7 -3 12 -14 12 -15 0 -27 -16 -46 -60 l-26 -60 -78 0 -79 0 -29 60 c-16 33 -35 60 -43 60 -8 0 -12 -6 -9 -12z m225 -160 c-3 -7 -15 -44 -28 -82 l-23 -70 -38 75 c-21 41 -38 77 -39 82 0 4 30 7 66 7 49 0 65 -3 62 -12z"/>
<path d="M1780 805 l0 -175 -55 0 c-48 0 -55 -2 -55 -20 0 -19 7 -20 135 -20 128 0 135 1 135 20 0 18 -7 20 -60 20 l-60 0 0 175 c0 168 -1 175 -20 175 -19 0 -20 -7 -20 -175z"/>
<path d="M2460 785 l0 -195 105 0 c98 0 105 1 105 20 0 18 -7 20 -85 20 l-85 0 0 60 0 60 85 0 c69 0 85 3 85 15 0 12 -16 15 -85 15 l-85 0 0 90 0 90 85 0 c50 0 85 4 85 10 0 6 -42 10 -105 10 l-105 0 0 -195z"/>
</g>
<g id="layer114" fill="#d5fffc" stroke="none">
<path d="M2092 979 c-18 -10 -34 -19 -37 -19 -3 0 -9 0 -15 0 -5 0 -10 -6 -10 -14 0 -8 -5 -16 -11 -18 -6 -2 -12 -15 -12 -30 -1 -14 -5 -24 -9 -22 -3 2 -12 -20 -19 -51 -9 -40 -9 -58 -1 -68 7 -7 13 -22 15 -33 4 -26 39 -84 50 -84 6 0 18 -10 29 -22 13 -16 30 -22 58 -23 22 0 40 -4 40 -9 0 -4 8 -5 18 -1 9 4 26 7 37 6 31 -1 77 20 108 50 32 32 33 36 10 41 -9 2 -29 -9 -44 -24 -15 -16 -35 -28 -43 -28 -9 0 -16 -4 -16 -10 0 -5 -22 -10 -50 -10 -27 0 -50 5 -50 10 0 6 -7 10 -15 10 -23 0 -82 58 -90 88 -4 15 -10 29 -15 32 -4 3 -9 25 -11 50 -2 33 1 44 10 42 9 -2 12 4 8 18 -3 11 -2 20 3 20 4 0 10 9 13 20 3 11 13 23 24 27 10 4 24 13 31 20 20 20 181 18 188 -2 4 -8 12 -15 19 -15 13 0 27 -23 31 -50 1 -8 5 -27 9 -42 7 -27 6 -28 -24 -22 -17 4 -52 3 -77 -1 -70 -10 -36 -25 59 -25 l77 0 0 34 c0 19 -5 38 -10 41 -6 4 -8 10 -5 15 3 5 -1 23 -10 41 -35 67 -189 102 -263 58z"/>
<path d="M2769 977 c-33 -28 -44 -56 -21 -52 9 1 16 9 14 17 -1 8 4 15 10 15 7 0 29 3 48 7 72 13 113 -40 91 -115 -7 -22 -16 -37 -20 -34 -5 2 -14 -2 -21 -10 -7 -8 -19 -15 -27 -15 -8 0 -12 -4 -9 -9 4 -5 -3 -7 -15 -4 -14 4 -22 0 -25 -14 -3 -12 -17 -26 -30 -32 -33 -15 -35 -84 -3 -112 47 -40 130 -44 150 -7 6 11 9 22 6 24 -7 7 -37 -7 -37 -17 0 -5 -14 -9 -32 -9 -23 0 -39 9 -60 32 -15 17 -28 36 -28 42 0 15 50 56 76 62 12 3 25 12 28 20 3 8 12 14 20 14 8 0 26 11 39 24 20 20 24 35 25 84 1 59 0 60 -39 86 -51 33 -104 34 -140 3z"/>
<path d="M1030 939 c-6 -23 -16 -49 -20 -58 -13 -23 -40 -109 -40 -126 0 -8 -4 -15 -8 -15 -9 0 -12 -15 -13 -57 -1 -13 -5 -21 -9 -18 -4 3 -11 -2 -14 -11 -4 -10 -2 -13 7 -8 7 5 6 1 -3 -10 -21 -26 -22 -48 -2 -44 9 2 15 7 14 12 -2 5 1 12 7 15 10 7 22 49 25 88 0 11 4 19 7 17 9 -5 21 45 14 56 -4 6 -1 10 5 10 11 0 27 34 34 77 9 46 23 49 40 8 9 -21 16 -39 16 -40 0 -1 10 -24 22 -51 12 -27 23 -57 25 -67 2 -10 10 -25 18 -33 8 -8 12 -21 9 -29 -4 -8 -1 -15 5 -15 6 0 11 -6 11 -14 0 -16 28 -41 36 -33 6 6 -37 121 -118 315 -16 40 -36 72 -44 72 -7 0 -18 -18 -24 -41z"/>
<path d="M1267 974 c-4 -4 -7 -92 -7 -196 0 -147 3 -189 13 -186 9 4 13 52 15 188 2 168 -3 212 -21 194z"/>
<path d="M1659 967 c-13 -10 -41 -65 -45 -89 -1 -5 -2 -11 -3 -15 0 -5 -27 -7 -59 -7 -117 3 -108 -1 -136 59 -14 32 -31 55 -40 55 -13 0 -12 -5 3 -32 11 -18 36 -73 57 -123 21 -49 41 -92 44 -95 4 -3 18 -33 31 -68 l25 -63 34 88 c32 87 38 100 79 197 12 26 18 52 15 57 -3 5 -1 9 4 9 12 0 24 28 14 34 -4 2 -14 -1 -23 -7z m-64 -157 c3 -5 2 -10 -3 -10 -5 0 -12 -10 -15 -22 -3 -13 -10 -38 -15 -56 -8 -24 -8 -31 1 -26 7 4 3 -2 -8 -13 l-20 -20 -37 71 c-20 39 -37 74 -38 79 0 11 128 8 135 -3z"/>
<path d="M1792 968 c-8 -8 -12 -62 -12 -179 l0 -166 -50 5 c-46 4 -50 3 -50 -17 0 -20 4 -21 131 -21 119 0 130 2 127 18 -2 13 -15 18 -61 20 l-57 3 0 174 c0 96 -4 175 -8 175 -4 0 -13 -5 -20 -12z"/>
<path d="M2467 973 c-9 -8 -9 -346 -1 -367 5 -13 24 -16 106 -16 87 0 99 2 94 16 -3 9 -6 18 -6 20 0 2 -36 4 -80 4 l-80 0 0 60 0 60 85 0 c71 0 85 3 85 16 0 12 -11 15 -57 14 -32 -1 -70 -1 -85 -1 l-28 1 0 90 0 90 86 0 c54 0 83 4 79 10 -7 11 -188 14 -198 3z"/>
</g>
<g id="layer115" fill="#fbfcfa" stroke="none">
<path d="M3010 1205 c0 -8 7 -15 15 -15 8 0 15 7 15 15 0 8 -7 15 -15 15 -8 0 -15 -7 -15 -15z"/>
<path d="M705 1130 c3 -5 8 -10 11 -10 3 0 2 5 -1 10 -3 6 -8 10 -11 10 -3 0 -2 -4 1 -10z"/>
<path d="M2136 988 c4 -6 3 -8 -4 -4 -6 3 -23 1 -39 -6 -32 -13 -38 -15 -54 -17 -6 0 -9 -8 -5 -16 3 -9 0 -15 -10 -15 -10 0 -14 -6 -10 -15 3 -8 1 -15 -5 -15 -6 0 -8 -7 -5 -16 3 -8 2 -12 -4 -9 -6 3 -11 -2 -12 -12 0 -10 -2 -23 -2 -30 -1 -6 -5 -15 -9 -19 -10 -11 -9 -48 3 -60 5 -5 11 -20 13 -33 2 -12 9 -26 16 -30 7 -5 13 -12 13 -17 1 -18 10 -34 20 -34 6 0 19 -10 30 -22 13 -16 30 -22 58 -23 22 0 40 -4 40 -9 0 -4 8 -5 18 -1 9 4 26 7 37 6 31 -1 77 20 108 50 32 32 33 35 9 41 -17 5 -49 -27 -45 -43 1 -4 -3 -6 -10 -6 -34 1 -49 -4 -44 -15 3 -10 -9 -12 -49 -10 -30 2 -54 8 -54 14 0 6 -7 8 -15 4 -8 -3 -15 -1 -15 4 0 6 -5 10 -10 10 -16 0 -58 51 -65 80 -4 14 -10 27 -15 30 -14 9 -15 95 -1 92 8 -2 10 4 6 18 -3 11 -2 20 3 20 5 0 12 9 15 20 3 11 13 23 24 27 10 4 24 13 31 20 20 20 181 18 188 -2 4 -8 11 -15 18 -15 14 -1 50 -50 36 -50 -6 0 -8 -5 -3 -12 4 -7 9 -24 11 -36 3 -22 0 -23 -28 -17 -18 4 -52 4 -78 0 -68 -10 -33 -25 61 -25 l77 0 0 34 c0 19 -5 38 -10 41 -6 4 -8 11 -5 16 14 21 -31 72 -83 95 -57 26 -160 34 -146 12z"/>
<path d="M2769 977 c-33 -28 -44 -56 -21 -52 9 1 16 9 14 17 -1 8 4 15 10 16 113 12 116 11 132 -23 9 -18 16 -40 16 -48 0 -24 -21 -77 -29 -73 -4 3 -18 -5 -32 -17 -13 -13 -32 -21 -41 -19 -12 2 -21 -5 -27 -21 -5 -13 -18 -27 -29 -29 -15 -4 -19 -15 -20 -53 -2 -38 1 -46 12 -42 10 4 13 1 10 -7 -13 -34 119 -53 143 -20 24 33 9 48 -20 20 -28 -28 -64 -23 -96 13 -17 19 -31 39 -31 45 0 13 20 45 20 33 0 -4 6 -2 14 5 8 7 13 15 11 18 -2 3 8 6 22 6 14 1 31 12 40 23 8 12 18 19 23 16 5 -3 20 6 33 19 20 20 24 34 25 85 1 61 0 62 -34 78 -19 9 -34 20 -34 25 0 18 -85 7 -111 -15z m166 -47 c3 -5 4 -10 1 -10 -3 0 -8 5 -11 10 -3 6 -4 10 -1 10 3 0 8 -4 11 -10z"/>
<path d="M1035 953 c-3 -16 -12 -41 -20 -58 -19 -41 -45 -122 -45 -140 0 -8 -4 -15 -8 -15 -5 0 -9 -6 -9 -12 0 -7 -4 -21 -8 -30 -4 -11 -3 -18 5 -18 6 0 8 -5 5 -10 -4 -6 -11 -8 -16 -5 -7 5 -12 -5 -8 -17 0 -2 -4 -15 -10 -30 -8 -22 -8 -28 3 -28 20 0 27 12 14 27 -8 11 -7 12 6 7 10 -4 16 -1 17 7 0 8 3 23 6 34 3 11 6 30 7 42 0 11 4 19 7 17 9 -5 21 44 14 55 -3 5 2 12 11 15 9 3 14 13 11 20 -3 8 -2 16 3 18 5 2 12 19 15 38 3 19 7 36 9 37 7 7 35 -10 30 -18 -2 -5 1 -19 8 -31 6 -13 13 -27 14 -33 1 -5 10 -28 20 -50 20 -45 21 -48 23 -71 0 -9 7 -14 15 -11 10 4 12 -3 10 -24 -2 -16 1 -29 6 -29 6 0 10 -6 10 -14 0 -18 27 -40 34 -28 5 9 -51 161 -63 172 -3 3 -7 13 -9 23 -2 9 -19 55 -38 102 -37 88 -59 106 -69 58z"/>
<path d="M1267 974 c-4 -4 -7 -92 -7 -196 0 -147 3 -189 13 -186 9 4 13 52 15 188 2 168 -3 212 -21 194z m10 -291 c-4 -3 -7 0 -7 7 0 7 3 10 7 7 3 -4 3 -10 0 -14z"/>
<path d="M1657 966 c-9 -7 -17 -20 -17 -28 0 -8 -5 -19 -11 -25 -9 -9 -13 -22 -18 -53 -1 -3 -27 -4 -59 -4 -117 3 -108 -1 -136 59 -15 34 -31 55 -41 55 -9 0 -13 -5 -10 -10 4 -6 11 -7 17 -4 7 4 8 2 4 -4 -4 -6 -2 -19 3 -29 6 -10 28 -60 49 -111 21 -51 41 -89 45 -85 4 3 7 -3 7 -15 0 -11 5 -24 10 -27 6 -3 10 -15 10 -26 0 -10 5 -19 10 -19 5 0 9 -3 9 -7 -1 -5 -1 -17 0 -28 1 -18 2 -19 12 -2 5 9 7 22 4 27 -3 6 -2 10 2 10 11 0 58 118 50 126 -3 3 1 14 10 23 20 24 63 132 57 143 -3 4 -1 8 4 8 12 0 24 28 14 34 -4 2 -15 -1 -25 -8z m-40 -153 c-4 -3 -7 0 -7 7 0 7 3 10 7 7 3 -4 3 -10 0 -14z m-17 -2 c0 -5 -5 -11 -10 -13 -6 -2 -11 -17 -13 -35 -1 -17 -5 -29 -8 -27 -4 2 -9 -7 -11 -21 -3 -16 -1 -22 6 -18 6 3 2 -3 -9 -14 -20 -20 -20 -20 -42 18 -12 21 -24 47 -28 59 -4 11 -9 18 -13 16 -4 -2 -8 7 -8 20 -2 23 1 24 67 24 38 0 69 -4 69 -9z"/>
<path d="M1792 968 c-8 -8 -12 -62 -12 -179 l0 -166 -50 5 c-46 4 -50 3 -50 -17 0 -20 4 -21 130 -21 111 0 130 2 130 16 0 8 -4 12 -10 9 -5 -3 -10 -1 -10 5 0 7 -17 10 -45 9 -24 -2 -47 -1 -49 2 -3 3 -6 82 -6 177 -1 95 -5 172 -9 172 -4 0 -12 -5 -19 -12z"/>
<path d="M2467 974 c-8 -8 -9 -348 -1 -369 5 -12 26 -15 104 -15 93 0 98 1 93 20 -5 18 -14 20 -84 20 l-79 0 0 60 0 60 83 0 c69 0 84 3 84 16 0 12 -12 15 -56 14 -31 -1 -68 -1 -83 -1 l-28 1 0 90 0 90 80 0 c47 0 80 4 80 10 0 11 -182 14 -193 4z"/>
</g>


</svg>